<?xml version="1.0" standalone="no"?>
<!DOCTYPE svg PUBLIC "-//W3C//DTD SVG 1.1//EN" "http://www.w3.org/Graphics/SVG/1.1/DTD/svg11.dtd" >
<svg xmlns="http://www.w3.org/2000/svg" xmlns:xlink="http://www.w3.org/1999/xlink" version="1.1">
<metadata>
Created by FontForge 20170731 at Thu Jul  5 21:59:35 2001
 By Aleksey,,,
Generated by Fontographer 4.1
</metadata>
<defs>
<font id="ArmorialNormal" horiz-adv-x="1207" >
  <font-face 
    font-family="Armorial"
    font-weight="400"
    font-stretch="normal"
    units-per-em="4096"
    panose-1="2 11 114 0 0 0 0 0 0 0"
    ascent="3276"
    descent="-820"
    x-height="1994"
    cap-height="2737"
    bbox="-227 -1110 3691.23 3338"
    underline-thickness="50"
    underline-position="-175"
    unicode-range="U+0020-F002"
  />
<missing-glyph horiz-adv-x="2048" 
d="M256 0v3064h1536v-3064h-1536zM512 256h1024v2552h-1024v-2552z" />
    <glyph glyph-name=".notdef" horiz-adv-x="2048" 
d="M256 0v3064h1536v-3064h-1536zM512 256h1024v2552h-1024v-2552z" />
    <glyph glyph-name=".null" horiz-adv-x="0" 
 />
    <glyph glyph-name="nonmarkingreturn" 
 />
    <glyph glyph-name="space" unicode=" " 
 />
    <glyph glyph-name="exclam" unicode="!" horiz-adv-x="1070" 
d="M432 423h219q104 0 104 -103v-219q0 -104 -104 -104h-219q-103 0 -103 104v219q0 103 103 103zM528 542l-1 -4q-145 254 -289 508q-232 415 -232 464q0 65 57 65q60 0 134 -142.5t139 -142.5q37 0 53 38q-4 327 -37 855q-42 669 -50 856l-17 7h488q-5 -106 -60 -843
q-42 -580 -42 -854q0 -61 67 -61q61 0 140 137.5t137 137.5t58 -63q0 -23 -545 -962v4z" />
    <glyph glyph-name="quotedbl" unicode="&#x22;" horiz-adv-x="1001" 
d="M101 2841h166q77 0 77 -77v-1091q0 -79 -77 -79h-166q-77 0 -77 79v1091q0 77 77 77zM758 2841h164q79 0 79 -77v-1091q0 -79 -79 -79h-164q-79 0 -79 79v1091q0 77 79 77z" />
    <glyph glyph-name="numbersign" unicode="#" 
 />
    <glyph glyph-name="dollar" unicode="$" 
 />
    <glyph glyph-name="percent" unicode="%" 
 />
    <glyph glyph-name="ampersand" unicode="&#x26;" horiz-adv-x="1911" 
d="M707 2337q-227 0 -227 -203q0 -132 83 -308q74 -158 175 -270q245 299 245 534q0 247 -276 247zM504 -666q-41 -270 -314 -270q-108 0 -108 99q0 61 107 91.5t107 142.5q0 122 -113.5 154.5t-113.5 95.5q0 97 116 97q256 0 316 -261q322 13 390 38q89 34 89 173l-20 315
q-109 -17 -215 -17q-309 0 -499 129q-226 153 -226 460q0 262 184 491q103 129 393 367q-87 170 -173 340q-100 206 -100 363q0 146 116 249q114 100 269 100q416 0 416 -381q0 -331 -299 -679q273 -560 324 -1128q78 61 194 218q129 176 129 252q0 38 -39 38l-31 -9
q-151 -141 -171 -141q-39 0 -38 41q1 22 482 574q233 -686 233 -696q0 -43 -40 -43q-37 0 -78.5 110t-84.5 110q-30 0 -45 -34q-188 -426 -496 -647q0 -93 4.5 -225.5t4.5 -174.5q0 -220 -112.5 -277.5t-557.5 -64.5zM692 1287q-189 -97 -345 -301q-171 -222 -171 -416
q0 -196 158 -299q134 -87 345 -87q161 0 295 51q-76 638 -282 1052z" />
    <glyph glyph-name="quotesingle" unicode="'" horiz-adv-x="325" 
d="M84 2841h167q77 0 77 -77v-1091q0 -79 -77 -79h-167q-77 0 -77 79v1091q0 77 77 77z" />
    <glyph glyph-name="parenleft" unicode="(" horiz-adv-x="719" 
d="M3 1389q0 472 148 891q162 456 474 764q14 14 36 14q55 0 55 -58q0 -17 -7 -35q-56 -78 -161 -241q-319 -559 -319 -1309q0 -483 125 -904q103 -349 355 -836q7 -13 7 -23q0 -29 -46 -29q-44 0 -62 19q-287 285 -455 816q-150 473 -150 931z" />
    <glyph glyph-name="parenright" unicode=")" horiz-adv-x="719" 
d="M12 -325q251 487 355 836q125 421 125 904q0 894 -480 1550q-14 18 -14 36q0 50 63 50q18 0 35 -7q622 -627 622 -1655q0 -458 -150 -931q-169 -530 -455 -816q-19 -19 -62 -19q-46 0 -46 29q0 10 7 23z" />
    <glyph glyph-name="asterisk" unicode="*" horiz-adv-x="1429" 
d="M400 2687l21 41q19 38 86 8l374 -166l332 213q68 44 110 2l6 -6q23 -23 24 -58q0 -36 -25 -52l-295 -180l354 -164q27 -13 26 -51q-1 -36 -25 -59l-22 -22q-36 -36 -110 2l-379 190l-317 -229q-63 -45 -108 0l-6 6q-23 23 -24 57q-2 37 24 51l332 189l-353 145
q-55 23 -25 83zM963 2392v-400q0 -77 -77 -77h-5q-77 0 -77 77v400h159zM804 2553v355q0 59 77 79l8 2q6 2 11 2q65 0 65 -81v-354z" />
    <glyph glyph-name="plus" unicode="+" horiz-adv-x="1429" 
d="M1254 1133v-167q0 -77 -77 -77h-414v-394q0 -79 -77 -79h-167q-77 0 -77 79v394h-356q-78 0 -78 77v167q0 77 78 77h356v376q0 77 77 77h167q77 0 77 -77v-376h414q77 0 77 -77z" />
    <glyph glyph-name="comma" unicode="," horiz-adv-x="417" 
d="M425 -269q0 -477 -222 -477q-142 0 -142 75q0 52 88 59q95 7 109 85q7 33 6 88l-2 432l-62 -1q-198 -2 -198 113v220q0 103 102 103h220q107 0 105 -103q-4 -188 -4 -594z" />
    <glyph glyph-name="hyphen" unicode="-" horiz-adv-x="1429" 
d="M1254 1133v-167q0 -77 -77 -77h-1091q-78 0 -78 77v167q0 77 78 77h1091q77 0 77 -77z" />
    <glyph glyph-name="hyphen" unicode="&#x2010;" horiz-adv-x="1429" 
d="M1254 1133v-167q0 -77 -77 -77h-1091q-78 0 -78 77v167q0 77 78 77h1091q77 0 77 -77z" />
    <glyph glyph-name="period" unicode="." horiz-adv-x="440" 
d="M111 426h219q103 0 103 -102v-220q0 -104 -103 -104h-219q-104 0 -104 104v220q0 102 104 102z" />
    <glyph glyph-name="slash" unicode="/" 
 />
    <glyph glyph-name="zero" unicode="0" 
 />
    <glyph glyph-name="one" unicode="1" 
 />
    <glyph glyph-name="two" unicode="2" 
 />
    <glyph glyph-name="three" unicode="3" 
 />
    <glyph glyph-name="four" unicode="4" 
 />
    <glyph glyph-name="five" unicode="5" 
 />
    <glyph glyph-name="six" unicode="6" 
 />
    <glyph glyph-name="seven" unicode="7" 
 />
    <glyph glyph-name="eight" unicode="8" 
 />
    <glyph glyph-name="nine" unicode="9" 
 />
    <glyph glyph-name="colon" unicode=":" horiz-adv-x="440" 
d="M111 426h219q103 0 103 -102v-220q0 -104 -103 -104h-219q-104 0 -104 104v220q0 102 104 102zM111 1931h219q103 0 103 -103v-221q0 -102 -103 -102h-219q-104 0 -104 102v221q0 103 104 103z" />
    <glyph glyph-name="semicolon" unicode=";" horiz-adv-x="417" 
d="M425 -269q0 -477 -222 -477q-142 0 -142 75q0 52 88 59q95 7 109 85q7 33 6 88l-2 432l-62 -1q-198 -2 -198 113v220q0 103 102 103h220q107 0 105 -103q-4 -188 -4 -594zM111 1931h219q103 0 103 -103v-221q0 -102 -103 -102h-219q-104 0 -104 102v221q0 103 104 103z
" />
    <glyph glyph-name="less" unicode="&#x3c;" 
 />
    <glyph glyph-name="equal" unicode="=" 
 />
    <glyph glyph-name="greater" unicode="&#x3e;" 
 />
    <glyph glyph-name="question" unicode="?" horiz-adv-x="1561" 
d="M294 427h219q104 0 104 -104v-219q0 -104 -104 -104h-219q-102 0 -102 104v219q0 104 102 104zM1568 2311q0 -252 -212 -420l-414 -262q-177 -124 -262 -248q-87 -127 -136 -338q-23 -121 -46 -241q-43 -182 -99 -183l-43 37q-18 102 -18 344q0 440 237 679
q28 28 439 299q237 155 237 392q0 179 -127 298q-123 116 -304 116q-108 0 -241 -84q-146 -91 -146 -190q0 -35 34 -35q39 0 109.5 66t107.5 66q34 0 34 -30q0 -43 -240 -273q-149 -138 -297 -275q-168 696 -168 726q0 35 33 35q49 0 78.5 -117.5t80.5 -117.5q25 0 43 29
q266 429 624 429q296 0 496 -202.5t200 -499.5z" />
    <glyph glyph-name="at" unicode="@" 
 />
    <glyph glyph-name="A" unicode="A" horiz-adv-x="2874" 
d="M2072 369q86 -116 210 -116q127 0 169 98q25 58 25 198q0 48 46 84q42 34 90 34q120 0 120 -202q0 -190 -137 -327t-328 -137q-199 0 -353 160q-152 157 -152 358q0 196 137 329l-110 259h-953q-112 -267 -313 -808q144 -46 147 -48q87 -41 87 -113q0 -52 -39 -89.5
t-91 -37.5q-119 0 -342 71q-276 88 -276 194q0 136 145 136q32 0 177 -49q268 653 535 1307q447 1062 535 1062l71 -49l728 -1701h4q69 -153 69 -180q0 -66 -47 -66q-86 0 -148 -60t-62 -145q0 -81 52 -158zM907 1261h826l-422 962z" />
    <glyph glyph-name="B" unicode="B" horiz-adv-x="2476" 
d="M1110 1441q0 60 44 70q4 1 90 1q247 0 430 156q192 164 192 406q0 241 -122 347q-113 98 -361 98q-256 0 -488 -130q-41 -861 -77 -2104q73 -52 251 -97q166 -42 268 -42q245 0 426 187q179 184 179 429q0 350 -224 478q-125 72 -536 129q-72 10 -72 72zM1 2449h-1
l445 285q54 -2 54 -20q0 -34 -117 -109l13 -53q425 130 1133 130q680 0 680 -521q0 -266 -184 -458q-168 -175 -440 -242q315 -27 503 -168q221 -165 221 -460q0 -395 -302 -626q-274 -210 -680 -210q-144 0 -415 72.5t-400 72.5q-6 0 -84 -75t-166 -75q-149 0 -149 92
q0 79 101 79q127 0 127 129q0 90 -83 130t-83 81q0 26 29 58.5t54 32.5q100 0 194 -141t134 -141q31 0 50 32q-14 692 -84 2069l-138 7l-8 -52q137 -57 137 -86q0 -18 -49 -29l-493 195z" />
    <glyph glyph-name="C" unicode="C" horiz-adv-x="2432" 
d="M1400 2499q-503 0 -783 -347q-258 -319 -258 -834q0 -454 207 -733q233 -314 674 -314q247 0 460 130q233 142 288 369q39 159 126 159q54 0 90 -45.5t36 -100.5q0 -366 -366 -589q-313 -191 -701 -191q-541 0 -870 405q-306 378 -306 932q0 567 364 959q372 402 934 402
q464 0 707 -383q12 -18 8 -19l12 -40l68 -22q66 173 115 173q26 0 26 -20q0 -42 -234 -637q-388 516 -388 528q0 40 31 40t84.5 -66t60.5 -66q52 0 64 45q-69 265 -449 265z" />
    <glyph glyph-name="D" unicode="D" horiz-adv-x="3047" 
d="M883 303q0 -40 151 -63q105 -16 189 -16q1129 0 1129 1287q0 908 -898 908q-46 0 -496 -27l-58 -1646h3q-20 -432 -20 -443zM638 2344q-31 5 -58 5q-123 0 -214.5 -146t-190.5 -146q-84 0 -84 92l47 65q108 23 108 139q0 142 -163 142q-77 0 -76 82l50 76q51 16 99 16
q162 0 241 -151q36 5 486 81q291 49 490 49q591 0 961 -275q412 -308 412 -880q0 -635 -370 -1054q-388 -438 -1015 -438q-379 0 -897 208l-32 -47l94 -106l-53 -32l-391 357l517 110l31 -57l-136 -42v-58q153 -17 156 -16l49 14q-1 24 -61 2012z" />
    <glyph glyph-name="E" unicode="E" horiz-adv-x="2117" 
d="M1011 2704q163 -12 350 -89q206 -86 295 -199l-3 -5l23 1q72 2 148 -48q84 -55 84 -123q0 -28 -27.5 -53.5t-55.5 -25.5q-21 0 -61.5 32.5t-78.5 32.5q-57 0 -101 -45.5t-44 -102.5q0 -14 24 -61.5t24 -68.5q0 -73 -89 -73q-56 0 -101 86q-40 75 -40 138q0 106 76 195
q-32 70 -192 132l2 -1q-113 48 -245 48q-203 0 -373 -106q-195 -123 -195 -314q0 -154 92.5 -256t241.5 -106l-4 1l77 22q29 29 29 62t-104 74.5t-104 94.5q0 29 39 29q20 0 710 -271q-590 -465 -602 -465q-51 0 -51 41q0 29 86 102q83 70 77 96q-75 40 -144 40
q-171 0 -328 -191q-149 -182 -149 -360q0 -304 216 -497q208 -186 513 -186q196 0 394 112q229 130 229 313q0 84 -230 86v164l332 5q103 1 103 -224q0 -317 -289 -533q-264 -196 -589 -196q-450 0 -711 257t-261 711q0 210 73 372q92 203 273 236q-200 253 -200 531
q0 291 256 455q223 142 525 135l78 -2z" />
    <glyph glyph-name="F" unicode="F" horiz-adv-x="1677" 
d="M394 0q-381 690 -381 711q0 44 47 44q33 0 92 -103t99 -103q50 0 48 57l-20 896l-113 -3q-78 -2 -78 82q0 95 188 75l-22 911q-200 0 -200 84q0 81 284 81q67 0 151.5 -4.5t81.5 -4.5q86 0 285 6q183 5 284 4q157 -2 284 -18q57 199 263 199q98 0 98 -87l-57 -71
q-130 -5 -130 -135q0 -107 99.5 -134.5t99.5 -84.5l-64 -83l-45 -2q-194 -10 -260 196q-289 36 -628 37h-235l-1 -26v-865l447 3q2 189 101 189q96 0 96 -113q-1 -10 5.5 -89.5t6.5 -135.5q0 -248 -113 -248q-78 0 -95 89q-4 24 -2 147q-58 -3 -130 -3l-246 -1
q-60 0 -109 -2l-31 -883q-2 -66 56 -66q39 0 99.5 100.5t94.5 100.5q46 0 46 -45q0 -20 -396 -702z" />
    <glyph glyph-name="G" unicode="G" horiz-adv-x="2210" 
d="M1161 1324l65 84l48 1q149 4 226 -135l539 13q57 2 68 -44q1 -5 1 -93q0 -523 -251 -824q-269 -323 -777 -323q-525 0 -817 412q-259 364 -259 910q0 498 303 878q325 408 811 408q173 0 336 -79q173 -83 258 -222q17 -8 59 -8q37 0 44.5 127.5t42.5 127.5q56 0 55 -55
l-12 -730q-653 396 -653 417q0 45 59 45q18 0 89 -42t88 -42q61 0 61 35q0 100 -184 142q-126 29 -275 25v2q-311 -42 -499 -371q-164 -286 -164 -626q0 -470 135 -779q184 -423 588 -423q298 0 452 275q122 217 130 545l-222 -5q-76 -154 -236 -154q-113 0 -111 84l59 73
q52 1 93 38.5t41 89.5q0 118 -96.5 143.5t-94.5 79.5z" />
    <glyph glyph-name="H" unicode="H" horiz-adv-x="2779" 
d="M2602 124q67 0 67 -78l-60 -83l-74 -6q-179 -15 -253 177h-284v-2q-36 1 -87 -3q-54 -4 -69 -4q-92 0 -92 126v1192h-1191v-1028h-1l-3 -188q-1 -50 52 -50q30 0 65 59q31 52 36 86l58 45l79 -38q18 -36 18 -81q0 -102 -71 -184q-75 -86 -175 -86q-111 0 -176 127
q-71 -128 -191 -128q-99 0 -176 88q-74 85 -74 186q0 122 89 121l85 -72q7 -116 57 -116l80 50v181l-3 28h3v1872q-196 60 -196 275q0 87 86 87l72 -57q5 -131 136 -131q107 0 136 100.5t84 100.5l83 -64l3 -37q10 -170 -156 -254v-748h1191v743q-179 66 -179 269
q0 88 87 88l71 -58q5 -131 136 -131q107 0 135 100.5t84 99.5l84 -63l2 -38q11 -184 -172 -260v-1837q0 -179 163 -179q88 0 190 124.5t210 124.5q73 0 73 -89l-56 -71q-125 -12 -125 -145q0 -141 149 -141z" />
    <glyph glyph-name="I" unicode="I" horiz-adv-x="923" 
d="M398 2737q397 -686 397 -709q0 -43 -44 -43q-36 0 -97 101.5t-99 101.5q-52 0 -52 -38l7 -55l9 -8l60 -1704q171 -90 171 -289q0 -122 -101 -122q-64 0 -97.5 118t-159.5 118q-115 0 -147.5 -111t-96.5 -111q-102 0 -102 112q0 214 187 298l49 1680q-1 9 5 18l10 64
q-25 21 -50 21q-35 0 -93 -101t-94 -101q-44 0 -44 55q0 11 382 705z" />
    <glyph glyph-name="J" unicode="J" horiz-adv-x="1748" 
d="M240 513q-23 34 -52 34q-26 0 -75.5 -80t-84.5 -80q-28 0 -28 30q0 23 343 588q294 -571 294 -578q0 -48 -32 -48q-35 0 -79 82t-65 82q-31 0 -53 -42q12 -136 130 -230q113 -90 253 -90q311 0 311 398v1721q-228 70 -228 325q0 102 102 102q55 0 95.5 -111.5
t150.5 -111.5q126 0 159.5 118t99.5 118q101 0 101 -115q0 -213 -186 -305v-1736q0 -254 -187 -428q-182 -169 -439 -169q-228 0 -378.5 148.5t-151.5 377.5z" />
    <glyph glyph-name="K" unicode="K" horiz-adv-x="3058" 
d="M2656 1021l310 -548l-32 -37q-33 5 -76.5 80t-92.5 76l8 -134q1 -21 1 -42q0 -168 -69 -279q-83 -133 -244 -133q-241 0 -414 380q-127 353 -253 706q-141 380 -303 380q-180 0 -349 -81q-177 -84 -276 -227l-35 -747q116 -28 189.5 -117.5t73.5 -207.5q0 -120 -100 -120
q-62 0 -100.5 117.5t-158.5 117.5q-110 0 -146.5 -110.5t-97.5 -110.5q-102 0 -102 112q0 124 76 213.5t198 111.5q-70 1016 -96 1826l-88 23q-68 0 -170 -105.5t-208 -105.5l-74 90q0 47 110 90.5t110 139.5q0 100 -128.5 120.5t-128.5 87.5q0 32 54 61q48 26 81 26
q118 0 187 -71q26 -26 83 -131q39 -71 86 -71q54 0 95.5 138.5t162.5 138.5q190 0 190 -434q0 -134 -19 -335q-22 -232 -23 -243l141 -42q271 0 540 226q281 235 281 501q0 126 -73 126q-55 -32 -84 -134q-23 -82 -92 -82q-33 0 -63 49q-27 43 -27 77q0 103 77 187t179 84
q117 0 186 -126q65 124 180 124q103 0 181 -86t78 -190q0 -117 -89 -117q-35 0 -63 122t-85 127q-63 -49 -63 -195q0 -119 -124 -361q-113 -221 -211 -330q176 -128 315 -487q98 -293 196 -585q102 -283 208 -283q109 0 113 286l-41 34q-68 -33 -156 -161l-32 37z" />
    <glyph glyph-name="L" unicode="L" horiz-adv-x="2041" 
d="M429 2466q126 0 159.5 117t97.5 117q100 0 100 -116q0 -134 -84.5 -225.5t-218.5 -108.5l100 -2023l11 -2l924 -1l-2 208h-1q-36 132 -124 132q-83 0 -83 -130q0 -50 12 -85l-55 -48l-60 23q-13 17 -13 108q0 238 222 238q111 0 181 -126q66 125 180 125q216 0 216 -254
q0 -75 -8 -89l-60 -25l-53 42q11 64 11 75q0 144 -92 144q-91 0 -117 -129h1v-282q0 -150 -170 -150l-1308 2q-99 0 -130 10q-65 22 -65 100q0 84 69 106q30 9 138 9l103 2037q-225 69 -225 307q0 115 102 115q54 0 94 -110.5t148 -110.5z" />
    <glyph glyph-name="M" unicode="M" horiz-adv-x="3415" 
d="M2154 1525q0 874 -392 874q-114 0 -195 -93q-73 -85 -87 -203q-22 -197 -22 -452q0 -198 18.5 -594.5t18.5 -579.5q0 -490 -115 -490q-108 0 -130 324q-3 37 -3 103t5.5 314.5t5.5 408.5q0 1263 -323 1263q-375 0 -375 -1078q0 -203 14 -496.5t14 -338.5
q0 -504 -142 -504q-118 0 -118 341q0 318 9 976q9 612 9 976v142l-133 -4q-208 -6 -208 155q0 111 128 110l1589 -2q414 0 572 -379q112 -270 112 -835q0 -97 -3.5 -283t-3.5 -271q0 -353 51 -511q66 -208 239 -208q118 0 203 145q74 128 74 259q0 12 -1 24l-6 72l-40 27
q-32 -14 -51 -112q-22 -119 -35 -143q-54 4 -71 323q-5 200 -10 401q175 -90 350 -179q280 -151 287 -195l-54 -33l-170 72l-57 -31q1 -52 34 -153t33 -155q0 -213 -156 -371t-369 -158q-503 0 -503 1126q0 92 3.5 233.5t3.5 182.5z" />
    <glyph glyph-name="N" unicode="N" horiz-adv-x="3589" 
d="M1117 2143l-239 138q-74 -64 -195 -64q-166 0 -166 104q0 85 69 85q15 0 42.5 -10.5t42.5 -10.5q54 0 94 43.5t40 98.5q0 48 -51.5 93.5t-51.5 70.5q0 87 83 87q90 0 148 -91q51 -80 51 -182q0 -34 -7 -63l193 -112q68 151 196 199q86 32 282 32q451 0 569 -593
q42 -550 84 -1101q53 -592 348 -592q376 0 376 914q0 136 -11 449q-11 290 -9 450q-132 6 -241 130q-107 121 -107 254q0 115 112 115q65 0 114.5 -129t180.5 -129q129 0 165 129t108 129q114 0 114 -119q0 -108 -95 -239q-102 -139 -205 -138q6 -87 59 -557
q37 -339 37 -559q0 -965 -592 -965q-382 0 -529 352q-100 241 -100 715q0 65 2 180t2 162q0 383 -37 536q-78 329 -339 329q-354 0 -354 -747q0 -125 11 -320.5t11 -241.5q0 -431 -87 -644q-135 -332 -504 -332q-196 0 -322 173q-82 112 -160 348q-11 34 -26 37
q-5 1 -46 -11q-42 -66 -58 -86q-41 -53 -77 -65l-32 38q7 35 341 574q291 -558 291 -580q0 -46 -66 -26q-82 155 -123 155q-39 0 -39 -48q0 -120 113 -222q111 -98 233 -98q378 0 378 850q0 128 -21 403.5t-21 412.5q0 162 21 289z" />
    <glyph glyph-name="O" unicode="O" horiz-adv-x="2703" 
d="M3 1322q0 581 307 944q328 388 900 388q580 0 891 -382q286 -352 286 -943q0 -595 -314 -953q-330 -376 -916 -376q-578 0 -880 382q-274 348 -274 940zM436 1265q0 -460 143 -740q188 -368 602 -368q402 0 612 401q168 320 168 761q0 457 -134 764q-183 419 -577 419
q-814 0 -814 -1237z" />
    <glyph glyph-name="P" unicode="P" horiz-adv-x="2320" 
d="M1345 3038q402 0 653 -138q319 -176 319 -544q0 -530 -491 -728q-299 -120 -945 -138q-23 -451 -20 -918l43 -23q50 2 116.5 125.5t111.5 123.5q46 0 46 -58q0 -25 -447 -863q-430 847 -430 871q0 59 47 59q45 0 110 -127t114 -127q57 0 52 77l2 -4l-16 861q-64 0 -191 5
q4 -246 -92 -246q-37 0 -71 35.5t-34 65.5v390q0 100 94 100q106 0 103 -181l186 5l-25 1074q-74 -1 -120 2q-138 -324 -322 -324q-84 0 -84 100q0 55 101 93t101 140q0 128 -123 158.5t-123 99.5q0 95 109 95q146 0 315 -198q522 137 911 137zM927 2776l-40 -1107
q519 11 715 91q343 141 343 573q0 507 -472 507q-25 0 -546 -64z" />
    <glyph glyph-name="Q" unicode="Q" horiz-adv-x="2855" 
d="M1733 887q83 0 83 -79q0 -95 -104 -150q139 -176 163 -176q158 0 253 415q68 300 68 535q0 499 -200 811q-238 371 -711 371q-488 0 -743 -430q-210 -354 -210 -878q0 -492 188 -795q227 -364 686 -364q118 0 287 46q220 58 220 145q0 25 -68 109q-46 55 -91 109
q-67 -51 -127 -51q-58 0 -58 66q0 91 138 205q133 111 226 111zM1862 166q-284 -174 -631 -174q-565 0 -909 394q-327 375 -327 949q0 580 336 981q357 425 927 425q583 0 934 -371q345 -364 345 -951q0 -386 -111 -637q-115 -260 -404 -503q113 -125 113 -197
q0 -85 -83 -85q-77 0 -190 169z" />
    <glyph glyph-name="R" unicode="R" horiz-adv-x="3003" 
d="M235 126q0 105 -96 140.5t-96 88.5q0 95 79 95q119 0 223.5 -132.5t213.5 -132.5q69 0 128 36q70 42 68 108l-53 2214q-186 0 -130 -5q-82 7 -82 73q0 81 122 99l428 62v-2q453 58 608 58q716 0 716 -623q0 -348 -218 -536q-172 -149 -548 -237q61 -363 121 -727
q122 -544 323 -544q139 0 228 101q84 97 84 238q0 119 -46 189q-40 62 -95 62q-95 0 -95 -139q0 -16 8 -48t8 -45q0 -51 -83 -51q-54 0 -54 140q0 118 67 190q63 68 154 68q134 0 210 -137q72 137 201 137q90 0 153 -71q68 -77 68 -202q0 -72 -4 -86q-13 -38 -67 -38
q-26 0 -46.5 24t-7.5 29q8 34 8 72q0 158 -103 158q-122 0 -122 -244.5t-128 -403.5q-138 -172 -376 -172q-262 0 -400 302q-87 189 -158 627q-70 430 -123 537q-21 39 -21 78q0 75 89 91q313 35 454 156q167 144 167 461q0 481 -442 481q-102 0 -271 -25q-231 -34 -265 -38
q-3 -79 -75 -1994h1q-14 -417 -83 -508q-88 -116 -463 -112q-74 -191 -274 -191q-134 0 -134 95q0 68 114.5 91.5t114.5 142.5z" />
    <glyph glyph-name="S" unicode="S" horiz-adv-x="2234" 
d="M691 770q0 144 -95 144q-106 0 -106 -184q0 -210 163 -338q150 -117 366 -117q248 0 408 149q165 152 165 399q0 259 -292 405q-271 124 -542 247q-292 186 -292 540q0 283 194 498q201 223 480 223q169 0 325 -84q104 -55 213 -154q90 -84 98 -84q54 0 60.5 134.5
t53.5 134.5t46 -56l-13 -730l-360 210q-294 177 -294 216t42 39q26 0 110 -45t100 -45q47 0 47 46q0 72 -148 139q-130 59 -215 59q-162 0 -295 -120q-136 -123 -136 -284q0 -280 316 -436l588 -262q317 -196 317 -572q0 -368 -262 -606q-254 -232 -625 -232
q-354 0 -570.5 218t-216.5 573q0 45 -35 81t-81 36q-88 0 -88 -127q0 -15 7.5 -43t7.5 -43q0 -48 -72 -48q-57 0 -57 101q0 105 51 183q58 90 159 90q121 0 193 -132q67 131 187 131q104 0 161 -100q47 -82 47 -194q0 -79 -66 -79q-36 0 -47 20q-8 14 -3 46q6 47 6 53z" />
    <glyph glyph-name="T" unicode="T" horiz-adv-x="2150" 
d="M1143 0l387 725q9 18 9 37q0 52 -41 52q-20 0 -39 -19l-122 -183q-27 -24 -47 -24q-23 0 -48 64l68 2007h484q4 -157 191 -195q23 -5 47 -5q107 0 189.5 80.5t82.5 185.5q0 22 -4 44q-19 94 -80 94q-75 0 -71 -92q-10 -159 -108 -159q-80 0 -96 90v134q0 77 -19 98
q-23 26 -103 21q-116 6 -1333 6q-77 0 -90 -7q-39 -19 -40 -111l-1 -142q-17 -89 -96 -89q-98 0 -108 159q4 92 -70 92q-61 0 -79 -94q-4 -22 -4 -44q0 -105 82 -185.5t189 -80.5q24 0 48 5q185 38 189 196h491q2 79 46 -2019q-20 -84 -84 -25l-117 186q-21 21 -41 21
q-41 0 -41 -52q0 -18 9 -36z" />
    <glyph glyph-name="U" unicode="U" horiz-adv-x="2543" 
d="M2095 2512q106 0 134.5 99.5t84.5 99.5q84 0 84 -101q0 -206 -198 -270v-1351q0 -459 -313 -729q-297 -257 -763 -257q-455 0 -724 245q-279 254 -279 705v1419q-111 78 -111 226q0 95 87 95q51 0 80.5 -93.5t124.5 -93.5q106 0 135 99.5t83 99.5q86 0 86 -103
q0 -166 -144 -244v-1405q0 -341 175 -547q186 -221 521 -221q375 0 600 235q221 231 221 609v1316q-177 63 -177 260q0 94 87 94q52 0 81.5 -93.5t124.5 -93.5z" />
    <glyph glyph-name="V" unicode="V" horiz-adv-x="2312" 
d="M2124 2453q116 0 155 110.5t97 110.5q101 0 101 -104q0 -132 -83 -224t-215 -109q-15 -140 -377 -1114q-354 -950 -427 -1075q-27 -46 -81 -46q-60 0 -80 46l-660 1563q-20 15 -179 34q-118 13 -118 103q0 94 117 122q109 24 219 47q117 48 117 191q0 105 -73 191
q-77 90 -181 90q-123 0 -167 -96q-24 -89 -48 -179q-31 -96 -125 -96q-114 0 -114 159q0 161 117 299q136 162 350 162q212 0 357 -164q137 -155 137 -359q0 -208 -151 -344l437 -1233q41 -118 65 -118q25 0 70 116q404 1037 644 1709q-252 60 -252 313q0 128 102 128
q65 0 96 -116.5t150 -116.5z" />
    <glyph glyph-name="W" unicode="W" horiz-adv-x="3826" 
d="M1083 363q601 0 601 1490q0 98 -2.5 250.5t-2.5 200.5q0 88 118 88q115 0 115 -80q0 -6 -1 -12q-16 -326 -16 -510q0 -1427 614 -1427q356 0 493 438q90 287 90 820q0 53 -1 138q-1 93 -1 120q0 69 -66 77q-55 -29 -127 -125t-124 -126q-26 -7 -42 7q-19 16 -10 52
l494 873q313 -569 474 -883q7 -28 -8 -45.5t-44 -12.5q-52 30 -122 128t-124 129q-29 1 -43 -14t-12 -34q76 -782 76 -1084q0 -379 -267 -603q-251 -211 -636 -211q-460 0 -713 290q-252 -290 -713 -290q-386 0 -636 211q-266 223 -266 603q0 213 45.5 635t45.5 631
q0 103 -126 166t-126 105q0 116 126 116q319 0 362 -547q25 -509 50 -1017q91 -547 525 -547z" />
    <glyph glyph-name="X" unicode="X" horiz-adv-x="2631" 
d="M1738 2488q120 0 149.5 115.5t97.5 115.5q100 0 100 -129q0 -260 -265 -313q-224 -303 -663 -913q178 -310 559 -915q140 -202 330 -202q211 0 211 269q0 60 -21 140q-28 103 -70 103q-38 0 -45 -74v-105q-3 -73 -41 -73q-41 0 -44 51l-36 665q174 -89 348 -179
q283 -153 283 -191q0 -34 -29 -34t-111.5 36.5l-82.5 36.5q-56 0 -56 -43q0 -16 51.5 -151.5t51.5 -213.5q0 -217 -135 -349q-126 -122 -312 -122q-302 0 -485 289h-1l-500 868q-275 -400 -474 -751q166 -80 166 -257q0 -162 -107 -162q-78 0 -92.5 117t-134.5 117
q-113 0 -168 -107.5t-99 -107.5q-103 0 -103 95q0 115 82 209q79 91 194 119l623 919q-249 420 -504 817q-70 -29 -140 -29q-89 0 -186 65q-106 71 -106 155q0 40 32 70.5t72 30.5q25 0 74.5 -51t106.5 -51q68 0 121 51t53 118q0 28 -18.5 66t-18.5 55q0 90 106 90
q61 0 105 -94q36 -78 36 -148q0 -107 -70 -199q206 -322 467 -751l513 757q-167 92 -167 297q0 100 102 100q59 0 97.5 -111t153.5 -111z" />
    <glyph glyph-name="Y" unicode="Y" horiz-adv-x="2393" 
d="M1141 0q-379 770 -379 795q0 53 41 53t98 -116t101 -116q48 0 48 130q0 133 -54 408q-26 13 -51 26q-165 189 -300 402q-183 286 -183 435q0 7 67 29q79 26 123 66q66 60 66 159q0 122 -88 200q-81 71 -185 71q-199 0 -199 -208q0 -134 -4 -148q-20 -68 -121 -68
q-123 0 -123 216t141 343q128 115 316 115q206 0 351 -135q162 -150 162 -404q0 -223 -152 -302l305 -485q35 -56 40 -56q9 0 38 56l395 758q-54 67 -54 104q0 100 105 100q26 0 75.5 -50.5t105.5 -50.5q68 0 121 51t53 118q0 26 -19 64.5t-19 55.5q0 90 106 90
q134 0 134 -214q0 -147 -83 -257q-98 -128 -267 -128q-29 0 -60 4l-404 -697q-46 -79 -98 -289q-57 -228 -57 -370t62 -142q45 0 101.5 113t99.5 113q41 0 41 -53q0 -25 -396 -786z" />
    <glyph glyph-name="Z" unicode="Z" horiz-adv-x="2385" 
d="M650 2671l1254 -3q223 0 223 -96q0 -75 -342 -552l-430 -586q61 -6 109.5 -41.5t48.5 -75.5q0 -105 -313 -100q-674 -948 -674 -977q0 -26 69 -28q366 -8 824 -8q183 0 263 38q119 57 119 219q0 57 -21 131q-27 94 -66 98q-42 -15 -42 -159q0 -75 -33 -75q-23 0 -38 55
q-32 118 -36 302l-4 306q159 -82 319 -165q257 -139 263 -177l-28 -30q-32 2 -96 34t-81 32q-53 0 -53 -43q0 -10 48.5 -137t48.5 -198q0 -196 -130 -316q-126 -118 -323 -118l-1378 2q-97 0 -97 55q0 50 361 554q221 302 441 605q-72 -1 -133.5 36t-61.5 80q0 108 351 101
q194 252 387 504q313 416 313 468q0 28 -88 28l-1087 -2q-197 0 -197 -250q0 -83 25.5 -150t57.5 -67q41 0 41 159q0 76 34 76q53 0 53 -148q0 -18 -1 -36h1l25 -480q-159 82 -319 164q-257 140 -263 177l28 31q33 -2 96.5 -34t80.5 -32q53 0 53 43q0 19 -44.5 141
t-44.5 190q0 212 139 336q132 119 348 119z" />
    <glyph glyph-name="bracketleft" unicode="[" 
 />
    <glyph glyph-name="backslash" unicode="\" 
 />
    <glyph glyph-name="bracketright" unicode="]" 
 />
    <glyph glyph-name="asciicircum" unicode="^" horiz-adv-x="1292" 
d="M-1 2308q0 64 257.5 358t339.5 324q51 19 102 0q82 -30 341 -324t259 -358q0 -63 -67 -63q-82 0 -583 301q-500 -301 -582 -301q-67 0 -67 63z" />
    <glyph glyph-name="underscore" unicode="_" horiz-adv-x="1684" 
d="M1684 89v-13q0 -77 -77 -77h-1543q-78 0 -78 77v13q0 77 78 77h1543q77 0 77 -77z" />
    <glyph glyph-name="grave" unicode="`" horiz-adv-x="909" 
d="M903 2228q0 -63 -67 -63q-64 0 -351 164q-177 105 -353 210q-105 58 -105 133q0 59 81 156t137 97q89 0 176 -101q135 -148 270 -297q212 -241 212 -299z" />
    <glyph glyph-name="a" unicode="a" horiz-adv-x="2681" 
d="M2442 596q3 -47 -41 -47q-35 0 -97 102.5t-100 102.5q-21 0 -39 -26q10 -275 10 -285q0 -188 -127 -299q-121 -105 -312 -105q-129 0 -238 69q-114 73 -156 191q-252 -289 -618 -289q-346 0 -545 303q-173 262 -173 627q0 448 237 744q257 321 694 321q271 0 401 -47v47
h308v-497l-4 3l5 -10l-3 -1076q0 -94 107 -94q136 0 180 123q10 30 34 238q-14 64 -52 64q-39 0 -102 -99.5t-98 -99.5q-44 0 -41 46q129 241 392 695q246 -447 378 -702zM1334 456v1099q0 136 -139 236q-127 92 -265 92q-304 0 -475 -322q-140 -263 -140 -597
q0 -299 114 -519q142 -276 413 -276q278 0 492 287z" />
    <glyph glyph-name="b" unicode="b" horiz-adv-x="2583" 
d="M801 61v2q-45 -64 -112 -63q-36 0 -111 -5.5t-109 -5.5q-173 0 -173 128q0 111 99 127q92 6 184 13q100 24 100 152l3 1262l-234 1q-70 -227 -299 -227q-139 0 -139 99q0 73 120.5 90.5t120.5 154.5q0 102 -101.5 149.5t-101.5 91.5q0 100 83 100q250 0 318 -230l234 -2
l1 531q0 60 -48 60q-40 0 -106 -108.5t-103 -108.5q-45 0 -43 50q133 260 398 742l415 -734q1 -50 -43 -50q-36 0 -103.5 105.5t-107.5 105.5q-57 0 -53 -46l35 -464q6 -77 93 -77q37 0 245.5 93t354.5 93q392 0 623 -359q200 -310 200 -725q0 -421 -182 -690
q-211 -312 -612 -312q-112 0 -329.5 52.5t-328.5 52.5q-100 0 -188 -48zM2068 1000q0 410 -73 602q-118 314 -457 314q-316 0 -468 -260q-122 -211 -122 -550q0 -354 126 -613q163 -333 479 -333q274 0 411 301q104 229 104 539z" />
    <glyph glyph-name="c" unicode="c" horiz-adv-x="1955" 
d="M16 1053q0 450 291 748.5t739 298.5q238 0 397 -105q77 168 273 168q102 0 102 -94q0 -47 -101.5 -87t-101.5 -136q0 -106 108 -148t108 -90q0 -92 -111 -92q-238 0 -297 237q-112 141 -312 141q-365 0 -584 -225t-219 -591q0 -402 217 -648q227 -259 623 -259
q179 0 295 67q70 41 151 138q76 91 123 113q30 2 30 -42q0 -204 -238 -335q-201 -112 -424 -112q-483 0 -774 284q-295 287 -295 769z" />
    <glyph glyph-name="d" unicode="d" horiz-adv-x="2576" 
d="M385 1003q0 -315 104 -541q139 -298 418 -298q310 0 471 336q126 262 126 609q0 332 -119 544q-148 265 -453 265q-350 0 -472 -306q-75 -190 -75 -609zM1433 1905q87 0 93 78l36 463q3 46 -53 46q-40 0 -107.5 -105.5t-103.5 -105.5q-46 0 -43 50q136 252 414 733
q251 -458 397 -742q3 -49 -43 -49q-36 0 -102 108t-106 108q-48 0 -48 -59l5 -2016q0 -163 227 -163q63 240 320 240q82 0 82 -99q0 -44 -100.5 -92t-100.5 -149q0 -137 120.5 -154.5t120.5 -89.5q0 -100 -140 -100q-210 0 -289 201q-23 -1 -90 -6q-57 -5 -91 -5
q-131 0 -180 71v-3q-88 49 -188 49q-115 0 -340.5 -53t-341.5 -53q-380 0 -589 323q-180 278 -180 678q0 414 200 724q231 358 623 358q146 0 354 -93t244 -93z" />
    <glyph glyph-name="e" unicode="e" horiz-adv-x="2131" 
d="M965 2009q388 0 612 -262q210 -246 210 -641q3 3 0 4l-4 -84q-353 8 -876 8h-518q-6 -51 -6 -97q0 -280 154 -488q170 -230 440 -230q108 0 258 69q173 78 173 169q0 57 -54 57q23 0 -226 -96q-46 -3 -46 42q0 43 323 232q197 110 393 221l-10 -783q-1 -61 -52 -61
q-45 0 -56 146t-59 146l-28 -10q-260 -338 -658 -338q-399 0 -665 275q-262 272 -262 673q0 450 250 741q264 307 707 307zM1468 1183q0 294 -99 477q-127 235 -396 235q-271 0 -429 -229q-132 -191 -155 -483h1079z" />
    <glyph glyph-name="f" unicode="f" horiz-adv-x="1448" 
d="M1462 2631q-11 0 -58 27.5t-80 27.5q-62 0 -108.5 -50.5t-46.5 -113.5q0 -40 34.5 -90t34.5 -61q0 -95 -97 -95q-68 0 -125 99q-50 88 -50 163q0 53 19 106q-80 140 -186 140q-146 0 -146 -202h1l-22 -466q176 2 195 -1q122 -19 122 -116q0 -119 -179 -119q-30 0 -81 3.5
t-67 3.5l-64 -1370q-2 -58 49 -58q40 0 107 110t103 110q46 0 44 -51q-133 -261 -403 -750q-419 733 -419 742q0 50 43 50q37 0 105 -106.5t109 -106.5q57 0 56 69l-20 1362q-179 -2 -196 0q-126 18 -126 114q0 122 179 122q27 0 75.5 -3t63.5 -3l-7 464q0 199 126 342
q130 149 326 149q235 0 376 -230q75 45 156 45q69 0 152 -45q94 -51 94 -113q0 -99 -89 -99z" />
    <glyph glyph-name="g" unicode="g" horiz-adv-x="2093" 
d="M1654 1101q-561 549 -561 575q0 43 39 43l28 -7l158 -125l25 -5q51 0 51 45q0 113 -174 181q-135 52 -268 52q-262 0 -447 -242q-171 -224 -171 -494q0 -1004 554 -1004q450 0 478 650q-20 0 -84.5 -4.5t-101.5 -4.5q-208 0 -208 132q0 122 126 121l528 -4
q120 -1 120 -119q0 -95 -82 -118l-43 -946q127 0 147 -5q78 -18 78 -103q0 -89 -83 -108q-22 -4 -152 -2q-35 -287 -39 -300q-46 -147 -209 -162v-1l-928 35q-44 -275 -319 -275q-109 0 -109 100q0 69 108.5 90.5t108.5 147.5q0 128 -115.5 156.5t-115.5 96.5q0 98 118 98
q261 0 320 -264q734 38 847 38q53 0 50 140l-2 103q-147 1 -161 4q-90 18 -90 106q0 87 84 105q24 5 152 3l-26 261q-165 -91 -421 -91q-428 0 -659 317q-204 281 -204 728q0 406 229 716q252 341 646 341q260 0 414 -78q178 -90 275 -307q18 -41 46 -41q41 0 72.5 133
t69.5 133q43 0 43 -56q0 -95 -59 -385q-41 -200 -83 -400z" />
    <glyph glyph-name="h" unicode="h" horiz-adv-x="2716" 
d="M606 1796q39 76 242 184q198 105 289 105q296 0 448 -196q137 -177 137 -482v-1067q27 -60 116 -60q230 0 230 372q0 65 -54 65q-38 0 -104.5 -102.5t-101.5 -102.5q-44 0 -42 48q133 247 404 715l388 -723q2 -48 -42 -48q-35 0 -100 105.5t-102 105.5q-22 0 -40 -27
q10 -283 10 -293q0 -193 -131 -307q-125 -108 -321 -108q-132 0 -245 71q-117 75 -160 196l2 5l-14 -1q0 117 6 372.5t6 379.5q0 801 -243 801q-141 0 -333 -117q-199 -122 -245 -249v-1023q116 -40 200 -148q87 -111 87 -231q0 -42 -104 -42q-57 0 -124 8l-7 6
q-2 82 -62.5 140.5t-142.5 58.5q-81 0 -141.5 -59t-62.5 -141l-8 -5h-145q-82 0 -82 34q0 121 91 236t209 145l14 846q-106 -81 -158 -81q-54 0 -88 59q-29 49 -29 108q0 70 110 157q85 58 171 117l27 824q-15 29 -47 29q-39 0 -106 -104.5t-103 -104.5q-44 0 -43 49
q187 398 411 728v-2l1 2q206 -318 395 -736q1 -49 -43 -49q-36 0 -102 107t-105 107q-50 0 -48 -64l-1 2q14 -205 36 -615z" />
    <glyph glyph-name="i" unicode="i" horiz-adv-x="1115" 
d="M276 407l56 1073q-16 30 -49 30q-42 0 -109.5 -108.5t-107.5 -108.5q-45 0 -44 50q142 263 427 756q266 -482 410 -764q2 -51 -45 -51q-37 0 -105 111.5t-109 111.5q-49 0 -47 -43l52 -1051q120 -46 199 -152q81 -110 81 -235q-8 -22 -31 -22h-195l-8 6q-1 81 -61 139.5
t-142 58.5q-81 0 -141.5 -58.5t-62.5 -140.5l-7 -5h-194q-22 0 -32 25q0 120 78 227q74 102 187 151zM335 2586h227q105 0 105 -105v-229q0 -106 -105 -106h-227q-104 0 -104 106v229q0 105 104 105z" />
    <glyph glyph-name="j" unicode="j" horiz-adv-x="2142" 
d="M1229 2762h241q111 0 111 -112v-243q0 -112 -111 -112h-241q-111 0 -111 112v243q0 112 111 112zM990 -762q185 0 190 169l56 2061q2 80 -59 80q-48 0 -129 -132.5t-126 -132.5q-53 0 -53 60q0 34 218 433q204 375 269 476l1 -34v34q70 -105 281 -470q227 -395 227 -429
q0 -60 -53 -60q-47 0 -127.5 129t-131.5 129q-71 0 -68 -73l62 -1411h1q-3 -49 -3 -111q0 -56 3.5 -175t3.5 -179q0 -334 -95 -490q-130 -216 -474 -216q-553 0 -553 632q0 54 4 115q-31 101 -99 101q-141 0 -141 -179q0 -15 2 -30l-3 -5q1 -68 -91 -68q-75 0 -75 109
q0 142 82 252q89 121 227 121q143 0 236 -131q93 131 235 131q137 0 227 -121q82 -110 82 -252q0 -109 -74 -109q-70 0 -85 28q-6 12 -6 82q0 172 -135 172q-39 0 -82 -37.5t-43 -75.5q0 -198 55 -285q68 -108 244 -108z" />
    <glyph glyph-name="k" unicode="k" horiz-adv-x="2530" 
d="M1930 731q0 21 -20 43l-8 1q-31 2 -66 -58q-24 -46 -47 -92l-28 -16q-30 -1 -30 41q0 12 254 578q299 -557 299 -572q0 -38 -28 -37l-28 14q-28 45 -56 89q-44 64 -70 65q-19 -11 -24 -55q-3 -30 2 -84q5 -64 5 -68q0 -248 -106 -402q-122 -177 -359 -177
q-286 0 -413 346q-87 240 -87 591q0 272 -106 309q-134 -14 -407 -65l-26 -19l-14 -621q-2 -68 50 -68q42 0 109 112.5t104 112.5q48 0 48 -44q0 -33 -188 -372q-112 -202 -225 -404q-431 744 -431 766q0 32 33 42l1 1l14 3q39 0 105 -109.5t112 -109.5q59 0 57 70l-65 2015
q-252 134 -252 370q0 127 121 127q81 0 99 -70q14 -65 28 -131q36 -70 160 -70q116 0 162 70l48 130q27 70 99 70q118 0 118 -123q0 -236 -252 -361l-31 -1072l18 -13q150 -25 223 -25q259 0 274 249q-189 66 -189 263q0 102 84 102q65 0 80 -99t137 -99q107 0 126.5 92.5
t77.5 92.5q86 0 86 -97q0 -200 -191 -259q0 -213 -146 -362q44 -45 97 -116q43 -305 86 -609q92 -406 304 -406q272 0 272 520z" />
    <glyph glyph-name="l" unicode="l" horiz-adv-x="973" 
d="M221 3064q65 0 76 -54q16 -82 33 -100q49 -54 205 -53l68 -2454q115 -44 193 -145q83 -106 83 -225l-30 -33h-193l-7 6q-2 79 -61.5 137t-138.5 58q-80 0 -139.5 -58t-61.5 -138l-7 -5h-192l-31 33q0 115 78 219q73 97 183 145l72 2270q-224 58 -224 290q0 107 94 107z
" />
    <glyph glyph-name="m" unicode="m" horiz-adv-x="3643" 
d="M2495 1995q609 0 661 -627h1l-80 -882l48 -63q44 25 101 105t100 105l41 -49q-131 -255 -385 -717l-401 710l42 47q43 -24 101.5 -102t103.5 -102l53 63l-68 878h-2q-21 155 -157 251q-125 89 -288 89q-369 0 -477 -162q-82 -122 -82 -514v-1007l-14 -16h-288l-14 16
v1515q-168 168 -370 168q-369 0 -477 -162q-82 -122 -82 -514v-1007l-15 -16h-288l-13 16v1669q-79 1 -152 19q-64 63 -64 132q0 173 574 173q119 0 293.5 -8t201.5 -8h1396z" />
    <glyph glyph-name="n" unicode="n" horiz-adv-x="2415" 
d="M1291 2015q344 0 492 -211q125 -178 125 -537q0 -69 -64 -770l2 5l47 -63q45 25 102 105t100 105l42 -48q-131 -256 -387 -720q-137 236 -402 712l42 48q43 -24 101 -102.5t104 -102.5q58 17 54 63l-69 881h-1q-21 155 -158 252q-127 89 -289 89q-370 0 -478 -163
q-82 -123 -82 -516v-1010l-15 -16h-289l-13 16v1675q-113 1 -154 21q-63 31 -63 130q0 152 126 153z" />
    <glyph glyph-name="o" unicode="o" horiz-adv-x="2150" 
d="M19 1035q0 424 239 694q250 282 671 282q441 0 673 -285q213 -262 213 -712q0 -456 -233 -721q-246 -280 -694 -280q-447 0 -671 298q-198 264 -198 724zM346 966q0 -835 561 -835q304 0 461 302q125 239 125 573q0 346 -99 575q-137 316 -436 316q-612 0 -612 -931z" />
    <glyph glyph-name="p" unicode="p" horiz-adv-x="2574" 
d="M52 2152q0 98 137 98q206 0 284 -198l435 7l750 -7q385 9 597 -307q184 -273 184 -677q0 -406 -197 -711q-227 -353 -611 -353q-134 0 -343 91t-246 91q-102 0 -121 -299q-3 -194 -5 -389l52 -46q46 25 105 104t103 104l42 -49q-140 -258 -408 -721q-264 481 -391 729
l43 49q43 -26 100.5 -106.5t103.5 -106.5l48 58l-2 672l-184 -9q-197 -10 -197 124q0 120 203 120q-2 0 178 -12l-3 1245q0 167 -190 161l-33 -1q-62 -236 -315 -236q-25 0 -53 36.5t-28 61.5q0 28 99 87t99 149q0 121 -118 150t-118 91zM2073 1073q0 308 -102 531
q-134 294 -404 294q-310 0 -470 -327q-124 -255 -124 -602q0 -324 117 -533q147 -262 445 -262q347 0 465 301q73 185 73 598z" />
    <glyph glyph-name="q" unicode="q" horiz-adv-x="2157" 
d="M1424 180q-37 0 -245.5 -91t-341.5 -91q-383 0 -610 352q-197 305 -197 710q0 406 182 676q211 313 598 306l-4 2l676 5q29 0 146 7q114 7 184 7q320 0 320 -132q0 -66 -58 -119l-208 -16q-109 -28 -109 -151l-4 -1657q183 0 170 2q98 -15 98 -111q0 -92 -99 -111
q-12 -2 -169 -2l-1 -254l47 -58q45 25 103.5 105.5t101.5 106.5l42 -49q-130 -254 -390 -727q-138 239 -407 720l42 48q43 -25 102.5 -103.5t104.5 -103.5l53 45l-14 268l-154 -1q-85 -1 -85 113q0 84 77 104q24 6 145 7q-3 193 -96 193zM396 1066q0 -411 73 -596
q119 -302 463 -302q298 0 444 262q117 209 117 532q0 347 -123 601q-159 326 -469 326q-269 0 -403 -293q-102 -223 -102 -530z" />
    <glyph glyph-name="r" unicode="r" horiz-adv-x="1808" 
d="M695 10q-2 83 -63 142.5t-144 59.5t-144.5 -60t-63.5 -143l-8 -5h-198l-32 35q0 117 81 225q76 102 188 151l47 1203q3 70 -118 104q-90 17 -180 33q-12 30 -12 85q0 219 112 219q140 0 352 -112v1q151 103 280 103q136 0 282 -146t214 -146q82 0 119 86l-47 49l-195 -13
l-45 40l48 49l715 125l1 -1q-97 -181 -195 -362q-167 -300 -206 -304l-39 42q31 69 79 212l-44 43l-13 -2q-163 -149 -357 -149q-62 0 -158 62t-120 62q-99 0 -175 -108q-71 -100 -65 -201l56 -967q119 -46 200 -150q86 -110 86 -233l-31 -35h-199z" />
    <glyph glyph-name="s" unicode="s" horiz-adv-x="1909" 
d="M121 900q47 0 87.5 -102t136.5 -102q103 0 146.5 108.5t91.5 108.5q92 0 92 -112q0 -221 -215 -290q13 -137 137 -227q115 -83 258 -83q168 0 295 129.5t127 298.5q0 199 -225 314q-208 96 -417 192q-224 143 -224 410q0 213 145 380q151 174 361 174q128 0 255 -56
q135 -61 204 -160l27 -7q44 0 60 115q19 136 57 172q49 -19 49 -60l-1 -772q-169 120 -337 240q-197 147 -305 275l42 41q6 -3 120 -66q90 -51 105 -50l47 47l-3 21q-92 98 -247 98q-128 0 -233 -94q-108 -97 -108 -223q0 -214 244 -338q227 -103 453 -207
q245 -153 245 -442q0 -288 -202 -465q-193 -168 -485 -168q-240 0 -414 130q-184 138 -216 369q-247 48 -247 299q0 102 94 102z" />
    <glyph glyph-name="t" unicode="t" horiz-adv-x="2022" 
d="M987 296q188 0 229 175q10 166 20 333l-32 69l-69 35q-81 -22 -94 -78q-11 -62 -23 -124l-71 -29q-57 29 -57 90q0 116 67 206q73 98 185 98q116 0 191 -107q76 107 192 107q111 0 185 -99q67 -90 67 -205q0 -20 -19 -53q-20 -37 -39 -37q-77 0 -77 87q0 144 -115 144
q-78 0 -78 -180q0 -56 8.5 -148.5t8.5 -108.5q0 -246 -110.5 -358.5t-357.5 -112.5q-260 0 -367 133q-96 119 -96 386q0 315 36 1393q-4 0 -92.5 -7t-153.5 -7q-268 0 -268 108q0 107 271 107q66 0 156 -7t93 -7l12 334l-56 60q-46 -25 -106 -105.5t-104 -105.5l-44 49
q182 391 414 733l1 -2v2q219 -337 397 -741l-43 -49q-44 26 -103 108t-105 108l-48 -65l-2 3l8 -329q4 0 92.5 6.5t153.5 6.5q269 0 269 -106q0 -107 -267 -107q-64 0 -152 6.5t-92 6.5l35 -1495q3 -121 150 -121z" />
    <glyph glyph-name="u" unicode="u" horiz-adv-x="1965" 
d="M891 293q350 0 423 441q20 409 39 819q35 441 293 441q101 0 101 -94q0 -47 -101.5 -88t-101.5 -130q0 -168 37 -508t37 -512q0 -306 -214 -486q-201 -170 -513 -170q-308 0 -512 171q-216 183 -216 485q0 172 37 512t37 508q0 89 -101.5 130t-101.5 88q0 94 101 94
q258 0 293 -441q20 -409 40 -819q73 -441 423 -441z" />
    <glyph glyph-name="v" unicode="v" horiz-adv-x="2138" 
d="M1575 2143q32 0 84 -103t142 -103q105 0 148.5 109t91.5 109q94 0 94 -112q0 -237 -237 -299l-663 -1706q-17 -43 -106 -43q-80 0 -96 38l-576 1345h-4q-41 93 -61 152l31 44l13 -1q67 -3 117 45t50 117q0 84 -63.5 152t-147.5 68q-109 0 -139 -85l-26 -158
q-18 -85 -97 -85q-94 0 -94 159q0 150 108 258.5t259 108.5q159 0 279.5 -124t120.5 -284q0 -155 -108 -262l465 -1086l501 1362q-181 75 -181 280q0 104 95 104z" />
    <glyph glyph-name="w" unicode="w" horiz-adv-x="3407" 
d="M923 309q511 0 511 1269q0 83 -2 213t-2 171q0 80 108 80q93 0 90 -75q-14 -285 -14 -442q0 -1216 523 -1216q351 0 452 500q43 214 43 791q-13 61 -56 66q-48 -25 -109 -107t-105 -107q-25 -3 -37.5 12.5t-6.5 37.5l420 744q267 -485 404 -752q-3 -54 -44 -50
q-45 26 -104.5 109.5t-105.5 109.5q-42 4 -47 -41q65 -668 65 -923q0 -322 -227 -513q-214 -180 -542 -180q-392 0 -607 247q-215 -247 -607 -247q-329 0 -543 179q-226 191 -226 514q0 182 39 541.5t39 536.5q0 88 -107.5 141.5t-107.5 89.5q0 99 108 99q271 0 308 -466
l42 -866q78 -466 448 -466z" />
    <glyph glyph-name="x" unicode="x" horiz-adv-x="2469" 
d="M629 1774l524 -524l525 524q-37 75 -37 152q0 85 46 162q49 83 126 104l71 -30l32 -66q-4 -12 -38 -74q-26 -47 -26 -77q0 -66 49.5 -118.5t115.5 -52.5q29 0 77 27q60 34 74 39l66 -32l30 -71q-20 -77 -103 -128q-76 -47 -161 -47q-81 0 -157 41l3 -3l-522 -521
l523 -523q75 39 152 39q86 0 162 -47q82 -50 103 -128l-30 -70l-66 -33q-11 4 -74 39q-47 27 -77 27q-66 0 -115.5 -52.5t-49.5 -118.5q0 -30 26 -77q34 -61 38 -73l-32 -67l-71 -30q-77 21 -126 104q-46 77 -46 162q0 77 37 152l-525 525l-524 -525q37 -75 37 -152
q0 -85 -45 -162q-50 -83 -127 -104l-71 30l-32 67q4 12 38 73q26 47 26 77q0 66 -49.5 118.5t-115.5 52.5q-30 0 -77 -27q-63 -35 -75 -39l-65 33l-31 70q23 77 104 128q76 47 161 47q78 0 153 -39l522 523l-521 521l3 3q-76 -41 -157 -41q-85 0 -161 47q-81 51 -104 128
l31 71l65 32q15 -5 75 -39q50 -27 77 -27q66 0 115.5 52.5t49.5 118.5q0 32 -25 77q-35 62 -39 73l32 67l71 30q77 -21 127 -104q45 -77 45 -162q0 -77 -37 -152z" />
    <glyph glyph-name="y" unicode="y" horiz-adv-x="2191" 
d="M713 -1106q-163 0 -279 128q-67 73 -153 248q-72 146 -114 165q-37 -32 -55 -121t-51 -121l-41 63l60 698l286 -242q166 -147 257 -270l-31 -35q-61 46 -196 120l-34 -39q31 -135 122 -234q103 -111 231 -111q371 0 371 888q0 112 -6.5 250.5t-6.5 146.5l-536 924l-4 -1
l-60 148q8 8 134 73q73 39 73 125q0 83 -62.5 148t-145.5 65l-111 -49q-40 -98 -40 -171q0 -97 -107 -97q-93 0 -93 154q0 146 108.5 250.5t254.5 104.5q156 0 275 -120t119 -276q0 -149 -107 -252l460 -730l488 999q-172 75 -172 269q0 100 94 100q32 0 85 -99.5t139 -99.5
q95 0 150 105.5t87 105.5q92 0 92 -107q0 -241 -246 -294q-203 -380 -406 -761q-219 -447 -219 -805v-364q0 -336 -136 -581q-166 -298 -474 -298z" />
    <glyph glyph-name="z" unicode="z" horiz-adv-x="1849" 
d="M669 -365q0 -219 45 -305q64 -124 257 -124q94 0 172 41q94 49 96 135q64 70 64 536q0 386 -40 512q-48 149 -210 188q-112 26 -514 26q-98 0 -98 73l10 56q213 196 425 391q278 267 278 443q0 137 -115 253.5t-252 116.5q-136 0 -266 -137l-4 -23l51 -49q5 2 128 71
q94 52 114 52l46 -44q-118 -135 -330 -291q-181 -127 -362 -255l-1 819l52 63q42 -39 60 -154q17 -111 67 -150l29 7q77 111 218.5 186.5t275.5 75.5q226 0 390 -200q155 -188 155 -420q0 -202 -71 -307q-43 -62 -170 -143q-134 -86 -201 -172q334 0 470 -102
q118 -87 141 -301q6 -248 13 -496h1q0 -530 -74 -736q-134 -373 -565 -373q-340 0 -456 231q-78 156 -78 530q0 57 -95 96q-133 -33 -133 -199q0 -21 -38 -45t-60 -24q-21 0 -44 43q-20 39 -20 61q0 135 79 239q87 114 218 114q137 0 226 -124q90 124 227 124
q131 0 217 -114q80 -104 80 -239q0 -22 -21 -61q-23 -43 -43 -43q-95 0 -95 105q0 163 -130 163l-81 -41z" />
    <glyph glyph-name="braceleft" unicode="{" 
 />
    <glyph glyph-name="bar" unicode="|" 
 />
    <glyph glyph-name="braceright" unicode="}" 
 />
    <glyph glyph-name="asciitilde" unicode="~" horiz-adv-x="1791" 
d="M27 2206q0 200 181 369q177 167 376 167q143 0 349.5 -110.5t319.5 -110.5q130 0 217 87q38 37 113 162q52 87 97 87q110 0 110 -93q0 -202 -188.5 -385t-389.5 -183q-139 0 -337.5 117.5t-321.5 117.5q-155 0 -237 -82q-25 -26 -96 -153q-45 -82 -112 -82q-81 0 -81 92z
" />
    <glyph glyph-name="exclamdown" unicode="&#xa1;" horiz-adv-x="1070" 
d="M683 2629h-220q-104 0 -104 102v220q0 104 104 104h220q102 0 102 -104v-220q0 -102 -102 -102zM586 2510l2 4l288 -508q232 -416 232 -464q0 -65 -56 -65q-60 0 -134.5 142t-138.5 142q-38 0 -54 -37q4 -327 38 -856q42 -668 50 -855l16 -7h-488q5 106 60 843
q43 579 43 854q0 61 -68 61q-60 0 -139.5 -137.5t-136.5 -137.5q-58 0 -58 63q0 23 544 962v-4z" />
    <glyph glyph-name="cent" unicode="&#xa2;" 
 />
    <glyph glyph-name="sterling" unicode="&#xa3;" 
 />
    <glyph glyph-name="currency" unicode="&#xa4;" 
 />
    <glyph glyph-name="yen" unicode="&#xa5;" 
 />
    <glyph glyph-name="section" unicode="&#xa7;" 
 />
    <glyph glyph-name="dieresis" unicode="&#xa8;" horiz-adv-x="1931" 
d="M329 2425v-166q0 -79 -78 -79h-169q-78 0 -78 79v166q0 81 78 81h169q78 0 78 -81zM1836 2425v-166q0 -79 -79 -79h-168q-79 0 -79 79v166q0 81 79 81h168q79 0 79 -81z" />
    <glyph glyph-name="copyright" unicode="&#xa9;" 
 />
    <glyph glyph-name="ordfeminine" unicode="&#xaa;" 
 />
    <glyph glyph-name="guillemotleft" unicode="&#xab;" 
 />
    <glyph glyph-name="logicalnot" unicode="&#xac;" 
 />
    <glyph glyph-name="registered" unicode="&#xae;" 
 />
    <glyph glyph-name="macron" unicode="&#xaf;" 
 />
    <glyph glyph-name="macron" unicode="&#x2c9;" 
 />
    <glyph glyph-name="plusminus" unicode="&#xb1;" 
 />
    <glyph glyph-name="twosuperior" unicode="&#xb2;" 
 />
    <glyph glyph-name="threesuperior" unicode="&#xb3;" 
 />
    <glyph glyph-name="acute" unicode="&#xb4;" horiz-adv-x="909" 
d="M28 2228q0 -63 67 -63q64 0 351 164l354 210q104 58 104 133q0 59 -81 156t-137 97q-88 0 -176 -101q-135 -148 -270 -297q-212 -241 -212 -299z" />
    <glyph glyph-name="mu" unicode="&#xb5;" 
 />
    <glyph glyph-name="mu" unicode="&#x3bc;" 
 />
    <glyph glyph-name="paragraph" unicode="&#xb6;" 
 />
    <glyph glyph-name="periodcentered" unicode="&#xb7;" 
 />
    <glyph glyph-name="periodcentered" unicode="&#x2219;" 
 />
    <glyph glyph-name="cedilla" unicode="&#xb8;" 
 />
    <glyph glyph-name="onesuperior" unicode="&#xb9;" 
 />
    <glyph glyph-name="ordmasculine" unicode="&#xba;" 
 />
    <glyph glyph-name="guillemotright" unicode="&#xbb;" 
 />
    <glyph glyph-name="onequarter" unicode="&#xbc;" 
 />
    <glyph glyph-name="onehalf" unicode="&#xbd;" 
 />
    <glyph glyph-name="threequarters" unicode="&#xbe;" 
 />
    <glyph glyph-name="questiondown" unicode="&#xbf;" 
 />
    <glyph glyph-name="Agrave" unicode="&#xc0;" horiz-adv-x="2874" 
d="M2072 369q86 -116 210 -116q127 0 169 98q25 58 25 198q0 48 46 84q42 34 90 34q120 0 120 -202q0 -190 -137 -327t-328 -137q-199 0 -353 160q-152 157 -152 358q0 196 137 329l-110 259h-953q-112 -267 -313 -808q144 -46 147 -48q87 -41 87 -113q0 -52 -39 -89.5
t-91 -37.5q-119 0 -342 71q-276 88 -276 194q0 136 145 136q32 0 177 -49q268 653 535 1307q447 1062 535 1062l71 -49l728 -1701h4q69 -153 69 -180q0 -66 -47 -66q-86 0 -148 -60t-62 -145q0 -81 52 -158zM907 1261h826l-422 962zM1300 2751q16 -43 -29 -60q-13 -6 -45 -6
q-10 0 -525 75q-85 13 -104 63q-5 12 -5 30q0 53 27 116q27 68 59 80q59 23 144 -22l258 -130q205 -108 220 -146z" />
    <glyph glyph-name="Aacute" unicode="&#xc1;" horiz-adv-x="2874" 
d="M2072 369q86 -116 210 -116q127 0 169 98q25 58 25 198q0 48 46 84q42 34 90 34q120 0 120 -202q0 -190 -137 -327t-328 -137q-199 0 -353 160q-152 157 -152 358q0 196 137 329l-110 259h-953q-112 -267 -313 -808q144 -46 147 -48q87 -41 87 -113q0 -52 -39 -89.5
t-91 -37.5q-119 0 -342 71q-276 88 -276 194q0 136 145 136q32 0 177 -49q268 653 535 1307q447 1062 535 1062l71 -49l728 -1701h4q69 -153 69 -180q0 -66 -47 -66q-86 0 -148 -60t-62 -145q0 -81 52 -158zM907 1261h826l-422 962zM1362 2835q-17 -43 28 -60q14 -5 46 -5
q10 0 524 75q85 12 105 62q4 12 4 31q0 52 -27 117.5t-58 77.5q-60 23 -145 -22l-258 -130q-205 -107 -219 -146z" />
    <glyph glyph-name="Acircumflex" unicode="&#xc2;" horiz-adv-x="2874" 
d="M2072 369q86 -116 210 -116q127 0 169 98q25 58 25 198q0 48 46 84q42 34 90 34q120 0 120 -202q0 -190 -137 -327t-328 -137q-199 0 -353 160q-152 157 -152 358q0 196 137 329l-110 259h-953q-112 -267 -313 -808q144 -46 147 -48q87 -41 87 -113q0 -52 -39 -89.5
t-91 -37.5q-119 0 -342 71q-276 88 -276 194q0 136 145 136q32 0 177 -49q268 653 535 1307q447 1062 535 1062l71 -49l728 -1701h4q69 -153 69 -180q0 -66 -47 -66q-86 0 -148 -60t-62 -145q0 -81 52 -158zM907 1261h826l-422 962zM849 2652q0 54 219 304t289 276
q43 16 87 0q69 -26 289 -276t220 -304t-57 -54q-69 0 -495 256q-425 -256 -495 -256q-57 0 -57 54z" />
    <glyph glyph-name="Atilde" unicode="&#xc3;" horiz-adv-x="2874" 
d="M2072 369q86 -116 210 -116q127 0 169 98q25 58 25 198q0 48 46 84q42 34 90 34q120 0 120 -202q0 -190 -137 -327t-328 -137q-199 0 -353 160q-152 157 -152 358q0 196 137 329l-110 259h-953q-112 -267 -313 -808q144 -46 147 -48q87 -41 87 -113q0 -52 -39 -89.5
t-91 -37.5q-119 0 -342 71q-276 88 -276 194q0 136 145 136q32 0 177 -49q268 653 535 1307q447 1062 535 1062l71 -49l728 -1701h4q69 -153 69 -180q0 -66 -47 -66q-86 0 -148 -60t-62 -145q0 -81 52 -158zM907 1261h826l-422 962zM758 2642q0 170 154 315q150 141 319 141
q121 0 297 -94t272 -94q146 0 238.5 143t124.5 143q93 0 93 -79q0 -172 -160.5 -327.5t-330.5 -155.5q-119 0 -287.5 99.5t-273.5 99.5q-131 0 -200 -69q-22 -22 -82 -130q-39 -70 -96 -70q-68 0 -68 78z" />
    <glyph glyph-name="Adieresis" unicode="&#xc4;" horiz-adv-x="2874" 
d="M2072 369q86 -116 210 -116q127 0 169 98q25 58 25 198q0 48 46 84q42 34 90 34q120 0 120 -202q0 -190 -137 -327t-328 -137q-199 0 -353 160q-152 157 -152 358q0 196 137 329l-110 259h-953q-112 -267 -313 -808q144 -46 147 -48q87 -41 87 -113q0 -52 -39 -89.5
t-91 -37.5q-119 0 -342 71q-276 88 -276 194q0 136 145 136q32 0 177 -49q268 653 535 1307q447 1062 535 1062l71 -49l728 -1701h4q69 -153 69 -180q0 -66 -47 -66q-86 0 -148 -60t-62 -145q0 -81 52 -158zM907 1261h826l-422 962z" />
    <glyph glyph-name="Aring" unicode="&#xc5;" 
 />
    <glyph glyph-name="AE" unicode="&#xc6;" 
 />
    <glyph glyph-name="Ccedilla" unicode="&#xc7;" 
 />
    <glyph glyph-name="Egrave" unicode="&#xc8;" horiz-adv-x="2117" 
d="M1011 2704q163 -12 350 -89q206 -86 295 -199l-3 -5l23 1q72 2 148 -48q84 -55 84 -123q0 -28 -27.5 -53.5t-55.5 -25.5q-21 0 -61.5 32.5t-78.5 32.5q-57 0 -101 -45.5t-44 -102.5q0 -14 24 -61.5t24 -68.5q0 -73 -89 -73q-56 0 -101 86q-40 75 -40 138q0 106 76 195
q-32 70 -192 132l2 -1q-113 48 -245 48q-203 0 -373 -106q-195 -123 -195 -314q0 -154 92.5 -256t241.5 -106l-4 1l77 22q29 29 29 62t-104 74.5t-104 94.5q0 29 39 29q20 0 710 -271q-590 -465 -602 -465q-51 0 -51 41q0 29 86 102q83 70 77 96q-75 40 -144 40
q-171 0 -328 -191q-149 -182 -149 -360q0 -304 216 -497q208 -186 513 -186q196 0 394 112q229 130 229 313q0 84 -230 86v164l332 5q103 1 103 -224q0 -317 -289 -533q-264 -196 -589 -196q-450 0 -711 257t-261 711q0 210 73 372q92 203 273 236q-200 253 -200 531
q0 291 256 455q223 142 525 135l78 -2zM974 2797q16 -43 -29 -60q-13 -5 -46 -5q-9 0 -524 75q-85 12 -105 63q-4 11 -4 30q0 52 27 117.5t59 78.5q59 22 144 -23l258 -130q205 -107 220 -146z" />
    <glyph glyph-name="Eacute" unicode="&#xc9;" horiz-adv-x="2117" 
d="M1011 2704q163 -12 350 -89q206 -86 295 -199l-3 -5l23 1q72 2 148 -48q84 -55 84 -123q0 -28 -27.5 -53.5t-55.5 -25.5q-21 0 -61.5 32.5t-78.5 32.5q-57 0 -101 -45.5t-44 -102.5q0 -14 24 -61.5t24 -68.5q0 -73 -89 -73q-56 0 -101 86q-40 75 -40 138q0 106 76 195
q-32 70 -192 132l2 -1q-113 48 -245 48q-203 0 -373 -106q-195 -123 -195 -314q0 -154 92.5 -256t241.5 -106l-4 1l77 22q29 29 29 62t-104 74.5t-104 94.5q0 29 39 29q20 0 710 -271q-590 -465 -602 -465q-51 0 -51 41q0 29 86 102q83 70 77 96q-75 40 -144 40
q-171 0 -328 -191q-149 -182 -149 -360q0 -304 216 -497q208 -186 513 -186q196 0 394 112q229 130 229 313q0 84 -230 86v164l332 5q103 1 103 -224q0 -317 -289 -533q-264 -196 -589 -196q-450 0 -711 257t-261 711q0 210 73 372q92 203 273 236q-200 253 -200 531
q0 291 256 455q223 142 525 135l78 -2zM1285 2759q-16 -43 29 -60q13 -5 46 -6q9 0 524 75q85 13 104 63q5 12 5 31q0 52 -27 117.5t-59 77.5q-59 23 -144 -22l-258 -130q-205 -108 -220 -146z" />
    <glyph glyph-name="Ecircumflex" unicode="&#xca;" horiz-adv-x="2117" 
d="M1011 2704q163 -12 350 -89q206 -86 295 -199l-3 -5l23 1q72 2 148 -48q84 -55 84 -123q0 -28 -27.5 -53.5t-55.5 -25.5q-21 0 -61.5 32.5t-78.5 32.5q-57 0 -101 -45.5t-44 -102.5q0 -14 24 -61.5t24 -68.5q0 -73 -89 -73q-56 0 -101 86q-40 75 -40 138q0 106 76 195
q-32 70 -192 132l2 -1q-113 48 -245 48q-203 0 -373 -106q-195 -123 -195 -314q0 -154 92.5 -256t241.5 -106l-4 1l77 22q29 29 29 62t-104 74.5t-104 94.5q0 29 39 29q20 0 710 -271q-590 -465 -602 -465q-51 0 -51 41q0 29 86 102q83 70 77 96q-75 40 -144 40
q-171 0 -328 -191q-149 -182 -149 -360q0 -304 216 -497q208 -186 513 -186q196 0 394 112q229 130 229 313q0 84 -230 86v164l332 5q103 1 103 -224q0 -317 -289 -533q-264 -196 -589 -196q-450 0 -711 257t-261 711q0 210 73 372q92 203 273 236q-200 253 -200 531
q0 291 256 455q223 142 525 135l78 -2zM351 2722q0 54 219 304t288 276q44 16 87 0q70 -26 290 -276t220 -304t-57 -54q-70 0 -495 256q-426 -256 -495 -256q-57 0 -57 54z" />
    <glyph glyph-name="Edieresis" unicode="&#xcb;" horiz-adv-x="2117" 
d="M1011 2704q163 -12 350 -89q206 -86 295 -199l-3 -5l23 1q72 2 148 -48q84 -55 84 -123q0 -28 -27.5 -53.5t-55.5 -25.5q-21 0 -61.5 32.5t-78.5 32.5q-57 0 -101 -45.5t-44 -102.5q0 -14 24 -61.5t24 -68.5q0 -73 -89 -73q-56 0 -101 86q-40 75 -40 138q0 106 76 195
q-32 70 -192 132l2 -1q-113 48 -245 48q-203 0 -373 -106q-195 -123 -195 -314q0 -154 92.5 -256t241.5 -106l-4 1l77 22q29 29 29 62t-104 74.5t-104 94.5q0 29 39 29q20 0 710 -271q-590 -465 -602 -465q-51 0 -51 41q0 29 86 102q83 70 77 96q-75 40 -144 40
q-171 0 -328 -191q-149 -182 -149 -360q0 -304 216 -497q208 -186 513 -186q196 0 394 112q229 130 229 313q0 84 -230 86v164l332 5q103 1 103 -224q0 -317 -289 -533q-264 -196 -589 -196q-450 0 -711 257t-261 711q0 210 73 372q92 203 273 236q-200 253 -200 531
q0 291 256 455q223 142 525 135l78 -2zM284 2730q0 170 154 314q150 141 319 141q121 0 297 -94t272 -94q146 0 238.5 143t124.5 143q93 0 93 -79q0 -171 -160.5 -326.5t-330.5 -155.5q-119 0 -287 99.5t-273 99.5q-132 0 -201 -70q-22 -22 -82 -129q-39 -70 -96 -70
q-68 0 -68 78z" />
    <glyph glyph-name="Igrave" unicode="&#xcc;" horiz-adv-x="923" 
d="M515 2737q397 -686 397 -709q0 -43 -43 -43q-36 0 -97 101.5t-100 101.5q-51 0 -51 -38l7 -55l9 -8l60 -1704q170 -90 170 -289q0 -122 -100 -122q-65 0 -98 118t-159 118q-116 0 -148.5 -111t-95.5 -111q-102 0 -102 112q0 214 186 298l50 1680q-2 9 4 18l11 64
q-25 21 -50 21q-35 0 -93 -101t-94 -101q-44 0 -44 55q0 11 381 705zM572 2821q16 -43 -28 -60q-14 -5 -46 -5q-10 0 -525 74q-85 13 -104 63q-5 12 -5 31q0 52 27.5 117.5t58.5 77.5q60 23 144 -22q129 -65 259 -130q204 -108 219 -146z" />
    <glyph glyph-name="Iacute" unicode="&#xcd;" horiz-adv-x="923" 
d="M398 2737q397 -686 397 -709q0 -43 -44 -43q-36 0 -97 101.5t-99 101.5q-52 0 -52 -38l7 -55l9 -8l60 -1704q171 -90 171 -289q0 -122 -101 -122q-64 0 -97.5 118t-159.5 118q-115 0 -147.5 -111t-96.5 -111q-102 0 -102 112q0 214 187 298l49 1680q-1 9 5 18l10 64
q-25 21 -50 21q-35 0 -93 -101t-94 -101q-44 0 -44 55q0 11 382 705zM382 2813q-17 -43 28 -60q14 -5 46 -5q10 0 525 75q85 12 104 62q5 12 5 31q0 52 -27.5 117.5t-58.5 77.5q-60 23 -144 -22q-129 -65 -259 -130q-204 -107 -219 -146z" />
    <glyph glyph-name="Icircumflex" unicode="&#xce;" horiz-adv-x="923" 
d="M398 2737q397 -686 397 -709q0 -43 -44 -43q-36 0 -97 101.5t-99 101.5q-52 0 -52 -38l7 -55l9 -8l60 -1704q171 -90 171 -289q0 -122 -101 -122q-64 0 -97.5 118t-159.5 118q-115 0 -147.5 -111t-96.5 -111q-102 0 -102 112q0 214 187 298l49 1680q-1 9 5 18l10 64
q-25 21 -50 21q-35 0 -93 -101t-94 -101q-44 0 -44 55q0 11 382 705zM-67 2655q0 47 186 259t245 234q37 14 74 0q59 -22 246 -234.5t187 -258.5t-48 -46q-59 0 -421 218q-362 -218 -421 -218q-48 0 -48 46z" />
    <glyph glyph-name="Idieresis" unicode="&#xcf;" horiz-adv-x="923" 
d="M398 2737q397 -686 397 -709q0 -43 -44 -43q-36 0 -97 101.5t-99 101.5q-52 0 -52 -38l7 -55l9 -8l60 -1704q171 -90 171 -289q0 -122 -101 -122q-64 0 -97.5 118t-159.5 118q-115 0 -147.5 -111t-96.5 -111q-102 0 -102 112q0 214 187 298l49 1680q-1 9 5 18l10 64
q-25 21 -50 21q-35 0 -93 -101t-94 -101q-44 0 -44 55q0 11 382 705z" />
    <glyph glyph-name="Eth" unicode="&#xd0;" 
 />
    <glyph glyph-name="Ntilde" unicode="&#xd1;" horiz-adv-x="3589" 
d="M1117 2143l-239 138q-74 -64 -195 -64q-166 0 -166 104q0 85 69 85q15 0 42.5 -10.5t42.5 -10.5q54 0 94 43.5t40 98.5q0 48 -51.5 93.5t-51.5 70.5q0 87 83 87q90 0 148 -91q51 -80 51 -182q0 -34 -7 -63l193 -112q68 151 196 199q86 32 282 32q451 0 569 -593
q42 -550 84 -1101q53 -592 348 -592q376 0 376 914q0 136 -11 449q-11 290 -9 450q-132 6 -241 130q-107 121 -107 254q0 115 112 115q65 0 114.5 -129t180.5 -129q129 0 165 129t108 129q114 0 114 -119q0 -108 -95 -239q-102 -139 -205 -138q6 -87 59 -557
q37 -339 37 -559q0 -965 -592 -965q-382 0 -529 352q-100 241 -100 715q0 65 2 180t2 162q0 383 -37 536q-78 329 -339 329q-354 0 -354 -747q0 -125 11 -320.5t11 -241.5q0 -431 -87 -644q-135 -332 -504 -332q-196 0 -322 173q-82 112 -160 348q-11 34 -26 37
q-5 1 -46 -11q-42 -66 -58 -86q-41 -53 -77 -65l-32 38q7 35 341 574q291 -558 291 -580q0 -46 -66 -26q-82 155 -123 155q-39 0 -39 -48q0 -120 113 -222q111 -98 233 -98q378 0 378 850q0 128 -21 403.5t-21 412.5q0 162 21 289zM1418 2677q0 171 153 315q151 141 320 141
q121 0 296.5 -94t272.5 -94q146 0 238.5 143t124.5 143q93 0 93 -79q0 -171 -160.5 -326.5t-331.5 -155.5q-118 0 -286.5 99.5t-273.5 99.5q-131 0 -201 -70q-21 -22 -81 -129q-39 -70 -96 -70q-68 0 -68 77z" />
    <glyph glyph-name="Ograve" unicode="&#xd2;" horiz-adv-x="2703" 
d="M3 1322q0 581 307 944q328 388 900 388q580 0 891 -382q286 -352 286 -943q0 -595 -314 -953q-330 -376 -916 -376q-578 0 -880 382q-274 348 -274 940zM436 1265q0 -460 143 -740q188 -368 602 -368q402 0 612 401q168 320 168 761q0 457 -134 764q-183 419 -577 419
q-814 0 -814 -1237zM1246 2751q16 -43 -29 -60q-14 -6 -46 -6q-9 0 -524 75q-85 13 -105 63q-4 12 -4 30q0 53 26 116q28 68 60 80q59 23 144 -22l258 -130q205 -108 220 -146z" />
    <glyph glyph-name="Oacute" unicode="&#xd3;" horiz-adv-x="2703" 
d="M3 1322q0 581 307 944q328 388 900 388q580 0 891 -382q286 -352 286 -943q0 -595 -314 -953q-330 -376 -916 -376q-578 0 -880 382q-274 348 -274 940zM436 1265q0 -460 143 -740q188 -368 602 -368q402 0 612 401q168 320 168 761q0 457 -134 764q-183 419 -577 419
q-814 0 -814 -1237zM1225 2766q-17 -43 28 -60q14 -5 46 -5q10 0 524 74q86 13 105 63q5 12 5 31q0 52 -27.5 117.5t-58.5 77.5q-60 23 -144 -22q-129 -65 -259 -130q-204 -107 -219 -146z" />
    <glyph glyph-name="Ocircumflex" unicode="&#xd4;" horiz-adv-x="2703" 
d="M3 1322q0 581 307 944q328 388 900 388q580 0 891 -382q286 -352 286 -943q0 -595 -314 -953q-330 -376 -916 -376q-578 0 -880 382q-274 348 -274 940zM436 1265q0 -460 143 -740q188 -368 602 -368q402 0 612 401q168 320 168 761q0 457 -134 764q-183 419 -577 419
q-814 0 -814 -1237zM634 2689q0 54 219 303.5t289 275.5q43 16 87 0q69 -26 289 -275.5t220 -303.5q0 -55 -56 -55q-70 0 -496 257q-425 -257 -495 -257q-57 0 -57 55z" />
    <glyph glyph-name="Otilde" unicode="&#xd5;" horiz-adv-x="2703" 
d="M3 1322q0 581 307 944q328 388 900 388q580 0 891 -382q286 -352 286 -943q0 -595 -314 -953q-330 -376 -916 -376q-578 0 -880 382q-274 348 -274 940zM436 1265q0 -460 143 -740q188 -368 602 -368q402 0 612 401q168 320 168 761q0 457 -134 764q-183 419 -577 419
q-814 0 -814 -1237zM533 2707q0 170 153 314q151 141 320 141q121 0 296.5 -94t272.5 -94q146 0 238.5 143t124.5 143q93 0 93 -79q0 -171 -160.5 -326.5t-331.5 -155.5q-118 0 -286.5 99.5t-273.5 99.5q-131 0 -201 -70q-21 -22 -81 -129q-39 -70 -96 -70q-68 0 -68 78z
" />
    <glyph glyph-name="Odieresis" unicode="&#xd6;" horiz-adv-x="2703" 
d="M3 1322q0 581 307 944q328 388 900 388q580 0 891 -382q286 -352 286 -943q0 -595 -314 -953q-330 -376 -916 -376q-578 0 -880 382q-274 348 -274 940zM436 1265q0 -460 143 -740q188 -368 602 -368q402 0 612 401q168 320 168 761q0 457 -134 764q-183 419 -577 419
q-814 0 -814 -1237z" />
    <glyph glyph-name="Oslash" unicode="&#xd8;" 
 />
    <glyph glyph-name="Ugrave" unicode="&#xd9;" horiz-adv-x="2543" 
d="M2095 2512q106 0 134.5 99.5t84.5 99.5q84 0 84 -101q0 -206 -198 -270v-1351q0 -459 -313 -729q-297 -257 -763 -257q-455 0 -724 245q-279 254 -279 705v1419q-111 78 -111 226q0 95 87 95q51 0 80.5 -93.5t124.5 -93.5q106 0 135 99.5t83 99.5q86 0 86 -103
q0 -166 -144 -244v-1405q0 -341 175 -547q186 -221 521 -221q375 0 600 235q221 231 221 609v1316q-177 63 -177 260q0 94 87 94q52 0 81.5 -93.5t124.5 -93.5zM629 2737q0 170 153 315q151 141 320 141q121 0 296.5 -94t272.5 -94q146 0 238.5 143t123.5 143q94 0 94 -79
q0 -172 -160.5 -327.5t-331.5 -155.5q-118 0 -286.5 100t-273.5 100q-131 0 -201 -70q-22 -22 -82 -130q-38 -69 -95 -69q-68 0 -68 77z" />
    <glyph glyph-name="Uacute" unicode="&#xda;" horiz-adv-x="2543" 
d="M2095 2512q106 0 134.5 99.5t84.5 99.5q84 0 84 -101q0 -206 -198 -270v-1351q0 -459 -313 -729q-297 -257 -763 -257q-455 0 -724 245q-279 254 -279 705v1419q-111 78 -111 226q0 95 87 95q51 0 80.5 -93.5t124.5 -93.5q106 0 135 99.5t83 99.5q86 0 86 -103
q0 -166 -144 -244v-1405q0 -341 175 -547q186 -221 521 -221q375 0 600 235q221 231 221 609v1316q-177 63 -177 260q0 94 87 94q52 0 81.5 -93.5t124.5 -93.5zM939 2766q-17 -42 28 -60q14 -5 46 -5q10 0 524 75q86 12 105 63q4 11 4 30q0 52 -26 116q-28 68 -59 80
q-60 23 -144 -22q-130 -65 -259 -130q-204 -108 -219 -147z" />
    <glyph glyph-name="Ucircumflex" unicode="&#xdb;" horiz-adv-x="2543" 
d="M2095 2512q106 0 134.5 99.5t84.5 99.5q84 0 84 -101q0 -206 -198 -270v-1351q0 -459 -313 -729q-297 -257 -763 -257q-455 0 -724 245q-279 254 -279 705v1419q-111 78 -111 226q0 95 87 95q51 0 80.5 -93.5t124.5 -93.5q106 0 135 99.5t83 99.5q86 0 86 -103
q0 -166 -144 -244v-1405q0 -341 175 -547q186 -221 521 -221q375 0 600 235q221 231 221 609v1316q-177 63 -177 260q0 94 87 94q52 0 81.5 -93.5t124.5 -93.5zM653 2750q0 54 219 304t289 276q43 16 87 0q69 -26 289 -276t220 -304t-57 -54q-69 0 -495 256
q-425 -256 -495 -256q-57 0 -57 54z" />
    <glyph glyph-name="Udieresis" unicode="&#xdc;" horiz-adv-x="2543" 
d="M2095 2512q106 0 134.5 99.5t84.5 99.5q84 0 84 -101q0 -206 -198 -270v-1351q0 -459 -313 -729q-297 -257 -763 -257q-455 0 -724 245q-279 254 -279 705v1419q-111 78 -111 226q0 95 87 95q51 0 80.5 -93.5t124.5 -93.5q106 0 135 99.5t83 99.5q86 0 86 -103
q0 -166 -144 -244v-1405q0 -341 175 -547q186 -221 521 -221q375 0 600 235q221 231 221 609v1316q-177 63 -177 260q0 94 87 94q52 0 81.5 -93.5t124.5 -93.5zM456 2986v-166q0 -79 -79 -79h-168q-79 0 -79 79v166q0 81 79 81h168q79 0 79 -81zM2259 2986v-166
q0 -79 -78 -79h-169q-79 0 -79 79v166q0 81 79 81h169q78 0 78 -81z" />
    <glyph glyph-name="Yacute" unicode="&#xdd;" horiz-adv-x="2393" 
d="M1141 0q-379 770 -379 795q0 53 41 53t98 -116t101 -116q48 0 48 130q0 133 -54 408q-26 13 -51 26q-165 189 -300 402q-183 286 -183 435q0 7 67 29q79 26 123 66q66 60 66 159q0 122 -88 200q-81 71 -185 71q-199 0 -199 -208q0 -134 -4 -148q-20 -68 -121 -68
q-123 0 -123 216t141 343q128 115 316 115q206 0 351 -135q162 -150 162 -404q0 -223 -152 -302l305 -485q35 -56 40 -56q9 0 38 56l395 758q-54 67 -54 104q0 100 105 100q26 0 75.5 -50.5t105.5 -50.5q68 0 121 51t53 118q0 26 -19 64.5t-19 55.5q0 90 106 90
q134 0 134 -214q0 -147 -83 -257q-98 -128 -267 -128q-29 0 -60 4l-404 -697q-46 -79 -98 -289q-57 -228 -57 -370t62 -142q45 0 101.5 113t99.5 113q41 0 41 -53q0 -25 -396 -786zM1140 2759q-17 -43 28 -60q14 -5 46 -6q10 0 524 75q86 13 105 63q5 12 5 31
q0 52 -27.5 117.5t-58.5 77.5q-60 23 -144 -22q-129 -65 -259 -130q-204 -108 -219 -146z" />
    <glyph glyph-name="Thorn" unicode="&#xde;" 
 />
    <glyph glyph-name="germandbls" unicode="&#xdf;" 
 />
    <glyph glyph-name="agrave" unicode="&#xe0;" horiz-adv-x="2681" 
d="M2442 596q3 -47 -41 -47q-35 0 -97 102.5t-100 102.5q-21 0 -39 -26q10 -275 10 -285q0 -188 -127 -299q-121 -105 -312 -105q-129 0 -238 69q-114 73 -156 191q-252 -289 -618 -289q-346 0 -545 303q-173 262 -173 627q0 448 237 744q257 321 694 321q271 0 401 -47v47
h308v-497l-4 3l5 -10l-3 -1076q0 -94 107 -94q136 0 180 123q10 30 34 238q-14 64 -52 64q-39 0 -102 -99.5t-98 -99.5q-44 0 -41 46q129 241 392 695q246 -447 378 -702zM1334 456v1099q0 136 -139 236q-127 92 -265 92q-304 0 -475 -322q-140 -263 -140 -597
q0 -299 114 -519q142 -276 413 -276q278 0 492 287zM1025 2228q0 -63 -67 -63q-64 0 -351 164q-177 105 -353 210q-105 58 -105 133q0 59 81 156t137 97q89 0 176 -101q135 -148 270 -297q212 -241 212 -299z" />
    <glyph glyph-name="aacute" unicode="&#xe1;" horiz-adv-x="2681" 
d="M2442 596q3 -47 -41 -47q-35 0 -97 102.5t-100 102.5q-21 0 -39 -26q10 -275 10 -285q0 -188 -127 -299q-121 -105 -312 -105q-129 0 -238 69q-114 73 -156 191q-252 -289 -618 -289q-346 0 -545 303q-173 262 -173 627q0 448 237 744q257 321 694 321q271 0 401 -47v47
h308v-497l-4 3l5 -10l-3 -1076q0 -94 107 -94q136 0 180 123q10 30 34 238q-14 64 -52 64q-39 0 -102 -99.5t-98 -99.5q-44 0 -41 46q129 241 392 695q246 -447 378 -702zM1334 456v1099q0 136 -139 236q-127 92 -265 92q-304 0 -475 -322q-140 -263 -140 -597
q0 -299 114 -519q142 -276 413 -276q278 0 492 287zM745 2228q0 -63 67 -63q64 0 351 164q177 105 353 210q105 58 105 133q0 59 -81 156t-137 97q-89 0 -176 -101q-135 -148 -270 -297q-212 -241 -212 -299z" />
    <glyph glyph-name="acircumflex" unicode="&#xe2;" horiz-adv-x="2681" 
d="M2442 596q3 -47 -41 -47q-35 0 -97 102.5t-100 102.5q-21 0 -39 -26q10 -275 10 -285q0 -188 -127 -299q-121 -105 -312 -105q-129 0 -238 69q-114 73 -156 191q-252 -289 -618 -289q-346 0 -545 303q-173 262 -173 627q0 448 237 744q257 321 694 321q271 0 401 -47v47
h308v-497l-4 3l5 -10l-3 -1076q0 -94 107 -94q136 0 180 123q10 30 34 238q-14 64 -52 64q-39 0 -102 -99.5t-98 -99.5q-44 0 -41 46q129 241 392 695q246 -447 378 -702zM1334 456v1099q0 136 -139 236q-127 92 -265 92q-304 0 -475 -322q-140 -263 -140 -597
q0 -299 114 -519q142 -276 413 -276q278 0 492 287zM361 2308q0 64 258 358t339 324q51 19 103 0q81 -30 340 -324t259 -358q0 -63 -67 -63q-82 0 -582 301q-501 -301 -583 -301q-67 0 -67 63z" />
    <glyph glyph-name="atilde" unicode="&#xe3;" horiz-adv-x="2681" 
d="M2442 596q3 -47 -41 -47q-35 0 -97 102.5t-100 102.5q-21 0 -39 -26q10 -275 10 -285q0 -188 -127 -299q-121 -105 -312 -105q-129 0 -238 69q-114 73 -156 191q-252 -289 -618 -289q-346 0 -545 303q-173 262 -173 627q0 448 237 744q257 321 694 321q271 0 401 -47v47
h308v-497l-4 3l5 -10l-3 -1076q0 -94 107 -94q136 0 180 123q10 30 34 238q-14 64 -52 64q-39 0 -102 -99.5t-98 -99.5q-44 0 -41 46q129 241 392 695q246 -447 378 -702zM1334 456v1099q0 136 -139 236q-127 92 -265 92q-304 0 -475 -322q-140 -263 -140 -597
q0 -299 114 -519q142 -276 413 -276q278 0 492 287zM207 2206q0 200 179 368t377 168q143 0 349.5 -110.5t320.5 -110.5q129 0 217 87q37 37 112 162q53 87 97 87q110 0 110 -93q0 -202 -188.5 -385t-389.5 -183q-139 0 -337 117.5t-322 117.5q-155 0 -236 -82
q-26 -26 -96 -153q-46 -82 -113 -82q-80 0 -80 92z" />
    <glyph glyph-name="adieresis" unicode="&#xe4;" horiz-adv-x="2681" 
d="M2442 596q3 -47 -41 -47q-35 0 -97 102.5t-100 102.5q-21 0 -39 -26q10 -275 10 -285q0 -188 -127 -299q-121 -105 -312 -105q-129 0 -238 69q-114 73 -156 191q-252 -289 -618 -289q-346 0 -545 303q-173 262 -173 627q0 448 237 744q257 321 694 321q271 0 401 -47v47
h308v-497l-4 3l5 -10l-3 -1076q0 -94 107 -94q136 0 180 123q10 30 34 238q-14 64 -52 64q-39 0 -102 -99.5t-98 -99.5q-44 0 -41 46q129 241 392 695q246 -447 378 -702zM1334 456v1099q0 136 -139 236q-127 92 -265 92q-304 0 -475 -322q-140 -263 -140 -597
q0 -299 114 -519q142 -276 413 -276q278 0 492 287zM329 2425v-166q0 -79 -78 -79h-169q-78 0 -78 79v166q0 81 78 81h169q78 0 78 -81zM1836 2425v-166q0 -79 -79 -79h-168q-79 0 -79 79v166q0 81 79 81h168q79 0 79 -81z" />
    <glyph glyph-name="aring" unicode="&#xe5;" horiz-adv-x="2681" 
d="M2442 596q3 -47 -41 -47q-35 0 -97 102.5t-100 102.5q-21 0 -39 -26q10 -275 10 -285q0 -188 -127 -299q-121 -105 -312 -105q-129 0 -238 69q-114 73 -156 191q-252 -289 -618 -289q-346 0 -545 303q-173 262 -173 627q0 448 237 744q257 321 694 321q271 0 401 -47v47
h308v-497l-4 3l5 -10l-3 -1076q0 -94 107 -94q136 0 180 123q10 30 34 238q-14 64 -52 64q-39 0 -102 -99.5t-98 -99.5q-44 0 -41 46q129 241 392 695q246 -447 378 -702zM1334 456v1099q0 136 -139 236q-127 92 -265 92q-304 0 -475 -322q-140 -263 -140 -597
q0 -299 114 -519q142 -276 413 -276q278 0 492 287z" />
    <glyph glyph-name="ae" unicode="&#xe6;" 
 />
    <glyph glyph-name="ccedilla" unicode="&#xe7;" horiz-adv-x="2009" 
d="M1673 1827q0 -108 110 -150t110 -91q0 -94 -113 -94q-242 0 -302 242q-114 143 -317 143q-373 0 -595.5 -228.5t-222.5 -602.5q0 -409 220 -660q232 -263 635 -263q332 0 524 276q33 48 55 48q31 0 31 -62q0 -34 -28 -94q-75 -162 -261 -254q-165 -82 -361 -88
q25 -59 25 -125q0 -144 -95 -248q-98 -107 -241 -107q-134 0 -228.5 94t-94.5 228q0 140 83 140q66 0 82 -46q7 -20 7 -94q0 -59 41.5 -103.5t99.5 -44.5q73 0 129 60t56 133q0 83 -73 124q-420 51 -665 346q-238 288 -238 715q0 457 295 759q298 306 753 306
q243 0 405 -106q78 171 277 171q104 0 104 -96q0 -48 -103.5 -89t-103.5 -139z" />
    <glyph glyph-name="egrave" unicode="&#xe8;" horiz-adv-x="2131" 
d="M965 2009q388 0 612 -262q210 -246 210 -641q3 3 0 4l-4 -84q-353 8 -876 8h-518q-6 -51 -6 -97q0 -280 154 -488q170 -230 440 -230q108 0 258 69q173 78 173 169q0 57 -54 57q23 0 -226 -96q-46 -3 -46 42q0 43 323 232q197 110 393 221l-10 -783q-1 -61 -52 -61
q-45 0 -56 146t-59 146l-28 -10q-260 -338 -658 -338q-399 0 -665 275q-262 272 -262 673q0 450 250 741q264 307 707 307zM1468 1183q0 294 -99 477q-127 235 -396 235q-271 0 -429 -229q-132 -191 -155 -483h1079zM1029 2228q0 -63 -66 -63q-65 0 -352 164
q-176 105 -353 210q-104 58 -104 133q0 59 80.5 156t136.5 97q89 0 176 -101q135 -148 271 -297q211 -241 211 -299z" />
    <glyph glyph-name="eacute" unicode="&#xe9;" horiz-adv-x="2131" 
d="M965 2009q388 0 612 -262q210 -246 210 -641q3 3 0 4l-4 -84q-353 8 -876 8h-518q-6 -51 -6 -97q0 -280 154 -488q170 -230 440 -230q108 0 258 69q173 78 173 169q0 57 -54 57q23 0 -226 -96q-46 -3 -46 42q0 43 323 232q197 110 393 221l-10 -783q-1 -61 -52 -61
q-45 0 -56 146t-59 146l-28 -10q-260 -338 -658 -338q-399 0 -665 275q-262 272 -262 673q0 450 250 741q264 307 707 307zM1468 1183q0 294 -99 477q-127 235 -396 235q-271 0 -429 -229q-132 -191 -155 -483h1079zM865 2228q0 -63 67 -63q64 0 351 164l354 210
q104 58 104 133q0 59 -81 156t-137 97q-88 0 -176 -101q-135 -148 -270 -297q-212 -241 -212 -299z" />
    <glyph glyph-name="ecircumflex" unicode="&#xea;" horiz-adv-x="2131" 
d="M965 2009q388 0 612 -262q210 -246 210 -641q3 3 0 4l-4 -84q-353 8 -876 8h-518q-6 -51 -6 -97q0 -280 154 -488q170 -230 440 -230q108 0 258 69q173 78 173 169q0 57 -54 57q23 0 -226 -96q-46 -3 -46 42q0 43 323 232q197 110 393 221l-10 -783q-1 -61 -52 -61
q-45 0 -56 146t-59 146l-28 -10q-260 -338 -658 -338q-399 0 -665 275q-262 272 -262 673q0 450 250 741q264 307 707 307zM1468 1183q0 294 -99 477q-127 235 -396 235q-271 0 -429 -229q-132 -191 -155 -483h1079zM245 2308q0 64 257.5 358t339.5 324q51 19 102 0
q82 -30 341 -324t259 -358q0 -63 -67 -63q-82 0 -583 301q-500 -301 -582 -301q-67 0 -67 63z" />
    <glyph glyph-name="edieresis" unicode="&#xeb;" horiz-adv-x="2131" 
d="M965 2009q388 0 612 -262q210 -246 210 -641q3 3 0 4l-4 -84q-353 8 -876 8h-518q-6 -51 -6 -97q0 -280 154 -488q170 -230 440 -230q108 0 258 69q173 78 173 169q0 57 -54 57q23 0 -226 -96q-46 -3 -46 42q0 43 323 232q197 110 393 221l-10 -783q-1 -61 -52 -61
q-45 0 -56 146t-59 146l-28 -10q-260 -338 -658 -338q-399 0 -665 275q-262 272 -262 673q0 450 250 741q264 307 707 307zM1468 1183q0 294 -99 477q-127 235 -396 235q-271 0 -429 -229q-132 -191 -155 -483h1079zM78 2217q0 200 180 370q178 166 376 166
q143 0 349.5 -110.5t320.5 -110.5q129 0 217 87q37 37 112 162q53 87 98 87q109 0 109 -93q0 -202 -188.5 -385t-389.5 -183q-139 0 -337 117.5t-322 117.5q-155 0 -236 -82q-26 -26 -96 -153q-46 -82 -113 -82q-80 0 -80 92z" />
    <glyph glyph-name="igrave" unicode="&#xec;" horiz-adv-x="1168" 
d="M420 407l56 1073q-17 30 -49 30q-43 0 -110.5 -108.5t-106.5 -108.5q-45 0 -44 50q141 263 427 756q265 -482 410 -764q1 -51 -45 -51q-38 0 -105.5 111.5t-108.5 111.5q-49 0 -47 -43l52 -1051q120 -46 198 -152q82 -110 82 -235q-9 -22 -31 -22h-195l-8 6
q-2 81 -62 139.5t-141 58.5q-82 0 -142 -58.5t-62 -140.5l-7 -5h-194q-23 0 -32 25q0 120 77 227q74 102 188 151zM674 2228q0 -63 -67 -63q-65 0 -352 164q-176 105 -353 210q-104 58 -104 133q0 59 80.5 156t137.5 97q88 0 175 -101q136 -148 271 -297q212 -241 212 -299z
" />
    <glyph glyph-name="iacute" unicode="&#xed;" horiz-adv-x="1168" 
d="M276 407l56 1073q-16 30 -49 30q-42 0 -109.5 -108.5t-107.5 -108.5q-45 0 -44 50q142 263 427 756q266 -482 410 -764q2 -51 -45 -51q-37 0 -105 111.5t-109 111.5q-49 0 -47 -43l52 -1051q120 -46 199 -152q81 -110 81 -235q-8 -22 -31 -22h-195l-8 6q-1 81 -61 139.5
t-142 58.5q-81 0 -141.5 -58.5t-62.5 -140.5l-7 -5h-194q-22 0 -32 25q0 120 78 227q74 102 187 151zM397 2228q0 -63 66 -63q65 0 352 164q176 105 353 210q104 58 104 133q0 59 -79 155q-82 98 -138 98q-89 0 -176 -101q-135 -148 -271 -297q-211 -241 -211 -299z" />
    <glyph glyph-name="icircumflex" unicode="&#xee;" horiz-adv-x="1168" 
d="M276 407l56 1073q-16 30 -49 30q-42 0 -109.5 -108.5t-107.5 -108.5q-45 0 -44 50q142 263 427 756q266 -482 410 -764q2 -51 -45 -51q-37 0 -105 111.5t-109 111.5q-49 0 -47 -43l52 -1051q120 -46 199 -152q81 -110 81 -235q-8 -22 -31 -22h-195l-8 6q-1 81 -61 139.5
t-142 58.5q-81 0 -141.5 -58.5t-62.5 -140.5l-7 -5h-194q-22 0 -32 25q0 120 78 227q74 102 187 151zM-178 2308q0 64 258 358t339 324q52 19 103 0q82 -30 340.5 -324t258.5 -358q0 -63 -67 -63q-81 0 -582 301q-501 -301 -583 -301q-67 0 -67 63z" />
    <glyph glyph-name="idieresis" unicode="&#xef;" horiz-adv-x="1168" 
d="M276 407l56 1073q-16 30 -49 30q-42 0 -109.5 -108.5t-107.5 -108.5q-45 0 -44 50q142 263 427 756q266 -482 410 -764q2 -51 -45 -51q-37 0 -105 111.5t-109 111.5q-49 0 -47 -43l52 -1051q120 -46 199 -152q81 -110 81 -235q-8 -22 -31 -22h-195l-8 6q-1 81 -61 139.5
t-142 58.5q-81 0 -141.5 -58.5t-62.5 -140.5l-7 -5h-194q-22 0 -32 25q0 120 78 227q74 102 187 151zM325 2491v-166q0 -79 -79 -79h-168q-79 0 -79 79v166q0 81 79 81h168q79 0 79 -81zM924 2491v-166q0 -79 -79 -79h-168q-79 0 -79 79v166q0 81 79 81h168q79 0 79 -81z
" />
    <glyph glyph-name="eth" unicode="&#xf0;" 
 />
    <glyph glyph-name="ntilde" unicode="&#xf1;" horiz-adv-x="2415" 
d="M1291 2015q344 0 492 -211q125 -178 125 -537q0 -69 -64 -770l2 5l47 -63q45 25 102 105t100 105l42 -48q-131 -256 -387 -720q-137 236 -402 712l42 48q43 -24 101 -102.5t104 -102.5q58 17 54 63l-69 881h-1q-21 155 -158 252q-127 89 -289 89q-370 0 -478 -163
q-82 -123 -82 -516v-1010l-15 -16h-289l-13 16v1675q-113 1 -154 21q-63 31 -63 130q0 152 126 153zM123 2206q0 200 179 368t377 168q143 0 349.5 -110.5t320.5 -110.5q129 0 217 87q37 37 112 162q53 87 98 87q109 0 109 -93q0 -202 -188.5 -385t-389.5 -183
q-139 0 -337 117.5t-322 117.5q-155 0 -236 -82q-26 -26 -96 -153q-46 -82 -113 -82q-80 0 -80 92z" />
    <glyph glyph-name="ograve" unicode="&#xf2;" horiz-adv-x="2150" 
d="M19 1035q0 424 239 694q250 282 671 282q441 0 673 -285q213 -262 213 -712q0 -456 -233 -721q-246 -280 -694 -280q-447 0 -671 298q-198 264 -198 724zM346 966q0 -835 561 -835q304 0 461 302q125 239 125 573q0 346 -99 575q-137 316 -436 316q-612 0 -612 -931z
M993 2228q0 -63 -67 -63q-64 0 -351 164q-176 105 -353 210q-104 58 -104 133q0 59 80.5 156t136.5 97q89 0 176 -101q135 -148 270 -297q212 -241 212 -299z" />
    <glyph glyph-name="oacute" unicode="&#xf3;" horiz-adv-x="2150" 
d="M19 1035q0 424 239 694q250 282 671 282q441 0 673 -285q213 -262 213 -712q0 -456 -233 -721q-246 -280 -694 -280q-447 0 -671 298q-198 264 -198 724zM346 966q0 -835 561 -835q304 0 461 302q125 239 125 573q0 346 -99 575q-137 316 -436 316q-612 0 -612 -931z
M888 2228q0 -63 67 -63q64 0 351 164l354 210q104 58 104 133q0 59 -81 156t-137 97q-88 0 -176 -101q-135 -148 -270 -297q-212 -241 -212 -299z" />
    <glyph glyph-name="ocircumflex" unicode="&#xf4;" horiz-adv-x="2150" 
d="M19 1035q0 424 239 694q250 282 671 282q441 0 673 -285q213 -262 213 -712q0 -456 -233 -721q-246 -280 -694 -280q-447 0 -671 298q-198 264 -198 724zM346 966q0 -835 561 -835q304 0 461 302q125 239 125 573q0 346 -99 575q-137 316 -436 316q-612 0 -612 -931z
M276 2308q0 64 257.5 358t339.5 324q51 19 102 0q82 -30 340.5 -324t258.5 -358q0 -63 -66 -63q-82 0 -583 301q-501 -301 -583 -301q-66 0 -66 63z" />
    <glyph glyph-name="otilde" unicode="&#xf5;" horiz-adv-x="2150" 
d="M19 1035q0 424 239 694q250 282 671 282q441 0 673 -285q213 -262 213 -712q0 -456 -233 -721q-246 -280 -694 -280q-447 0 -671 298q-198 264 -198 724zM346 966q0 -835 561 -835q304 0 461 302q125 239 125 573q0 346 -99 575q-137 316 -436 316q-612 0 -612 -931z
M116 2217q0 200 181 370q177 166 376 166q142 0 349 -110.5t320 -110.5q130 0 217 87q38 37 113 162q52 87 97 87q110 0 110 -93q0 -202 -189 -385t-390 -183q-139 0 -337 117.5t-322 117.5q-154 0 -236 -82q-26 -26 -96 -153q-46 -82 -113 -82q-80 0 -80 92z" />
    <glyph glyph-name="odieresis" unicode="&#xf6;" horiz-adv-x="2150" 
d="M19 1035q0 424 239 694q250 282 671 282q441 0 673 -285q213 -262 213 -712q0 -456 -233 -721q-246 -280 -694 -280q-447 0 -671 298q-198 264 -198 724zM346 966q0 -835 561 -835q304 0 461 302q125 239 125 573q0 346 -99 575q-137 316 -436 316q-612 0 -612 -931z
M329 2425v-166q0 -79 -78 -79h-169q-78 0 -78 79v166q0 81 78 81h169q78 0 78 -81zM1836 2425v-166q0 -79 -79 -79h-168q-79 0 -79 79v166q0 81 79 81h168q79 0 79 -81z" />
    <glyph glyph-name="oslash" unicode="&#xf8;" 
 />
    <glyph glyph-name="ugrave" unicode="&#xf9;" horiz-adv-x="1965" 
d="M891 293q350 0 423 441q20 409 39 819q35 441 293 441q101 0 101 -94q0 -47 -101.5 -88t-101.5 -130q0 -168 37 -508t37 -512q0 -306 -214 -486q-201 -170 -513 -170q-308 0 -512 171q-216 183 -216 485q0 172 37 512t37 508q0 89 -101.5 130t-101.5 88q0 94 101 94
q258 0 293 -441q20 -409 40 -819q73 -441 423 -441zM41 2347q0 200 181 370q177 166 375 166q143 0 349.5 -110.5t320.5 -110.5q129 0 217 87q37 38 112 162q53 87 98 87q109 0 109 -93q0 -201 -188.5 -384t-389.5 -183q-139 0 -337 117t-322 117q-154 0 -236 -82
q-26 -26 -96 -152q-46 -82 -113 -82q-80 0 -80 91z" />
    <glyph glyph-name="uacute" unicode="&#xfa;" horiz-adv-x="1965" 
d="M891 293q350 0 423 441q20 409 39 819q35 441 293 441q101 0 101 -94q0 -47 -101.5 -88t-101.5 -130q0 -168 37 -508t37 -512q0 -306 -214 -486q-201 -170 -513 -170q-308 0 -512 171q-216 183 -216 485q0 172 37 512t37 508q0 89 -101.5 130t-101.5 88q0 94 101 94
q258 0 293 -441q20 -409 40 -819q73 -441 423 -441zM813 2228q0 -63 67 -63q64 0 351 164q177 105 353 210q105 58 105 133q0 59 -81 156t-137 97q-89 0 -176 -101q-135 -148 -270 -297q-212 -241 -212 -299z" />
    <glyph glyph-name="ucircumflex" unicode="&#xfb;" horiz-adv-x="1965" 
d="M891 293q350 0 423 441q20 409 39 819q35 441 293 441q101 0 101 -94q0 -47 -101.5 -88t-101.5 -130q0 -168 37 -508t37 -512q0 -306 -214 -486q-201 -170 -513 -170q-308 0 -512 171q-216 183 -216 485q0 172 37 512t37 508q0 89 -101.5 130t-101.5 88q0 94 101 94
q258 0 293 -441q20 -409 40 -819q73 -441 423 -441zM230 2308q0 64 258 358t339 324q51 19 103 0q81 -30 340 -324t259 -358q0 -63 -67 -63q-82 0 -582 301q-501 -301 -583 -301q-67 0 -67 63z" />
    <glyph glyph-name="udieresis" unicode="&#xfc;" horiz-adv-x="1965" 
d="M891 293q350 0 423 441q20 409 39 819q35 441 293 441q101 0 101 -94q0 -47 -101.5 -88t-101.5 -130q0 -168 37 -508t37 -512q0 -306 -214 -486q-201 -170 -513 -170q-308 0 -512 171q-216 183 -216 485q0 172 37 512t37 508q0 89 -101.5 130t-101.5 88q0 94 101 94
q258 0 293 -441q20 -409 40 -819q73 -441 423 -441zM329 2425v-166q0 -79 -78 -79h-169q-78 0 -78 79v166q0 81 78 81h169q78 0 78 -81zM1836 2425v-166q0 -79 -79 -79h-168q-79 0 -79 79v166q0 81 79 81h168q79 0 79 -81z" />
    <glyph glyph-name="yacute" unicode="&#xfd;" horiz-adv-x="2191" 
d="M713 -1106q-163 0 -279 128q-67 73 -153 248q-72 146 -114 165q-37 -32 -55 -121t-51 -121l-41 63l60 698l286 -242q166 -147 257 -270l-31 -35q-61 46 -196 120l-34 -39q31 -135 122 -234q103 -111 231 -111q371 0 371 888q0 112 -6.5 250.5t-6.5 146.5l-536 924l-4 -1
l-60 148q8 8 134 73q73 39 73 125q0 83 -62.5 148t-145.5 65l-111 -49q-40 -98 -40 -171q0 -97 -107 -97q-93 0 -93 154q0 146 108.5 250.5t254.5 104.5q156 0 275 -120t119 -276q0 -149 -107 -252l460 -730l488 999q-172 75 -172 269q0 100 94 100q32 0 85 -99.5t139 -99.5
q95 0 150 105.5t87 105.5q92 0 92 -107q0 -241 -246 -294q-203 -380 -406 -761q-219 -447 -219 -805v-364q0 -336 -136 -581q-166 -298 -474 -298zM1067 2228q0 -63 67 -63q65 0 351 164l354 210q104 58 104 133q0 59 -80.5 156t-137.5 97q-88 0 -175 -101
q-136 -148 -271 -297q-212 -241 -212 -299z" />
    <glyph glyph-name="thorn" unicode="&#xfe;" 
 />
    <glyph glyph-name="ydieresis" unicode="&#xff;" horiz-adv-x="2191" 
d="M713 -1106q-163 0 -279 128q-67 73 -153 248q-72 146 -114 165q-37 -32 -55 -121t-51 -121l-41 63l60 698l286 -242q166 -147 257 -270l-31 -35q-61 46 -196 120l-34 -39q31 -135 122 -234q103 -111 231 -111q371 0 371 888q0 112 -6.5 250.5t-6.5 146.5l-536 924l-4 -1
l-60 148q8 8 134 73q73 39 73 125q0 83 -62.5 148t-145.5 65l-111 -49q-40 -98 -40 -171q0 -97 -107 -97q-93 0 -93 154q0 146 108.5 250.5t254.5 104.5q156 0 275 -120t119 -276q0 -149 -107 -252l460 -730l488 999q-172 75 -172 269q0 100 94 100q32 0 85 -99.5t139 -99.5
q95 0 150 105.5t87 105.5q92 0 92 -107q0 -241 -246 -294q-203 -380 -406 -761q-219 -447 -219 -805v-364q0 -336 -136 -581q-166 -298 -474 -298zM316 2398q0 201 180 370q177 167 376 167q143 0 349.5 -110.5t319.5 -110.5q130 0 218 87q37 37 112 162q53 87 97 87
q110 0 110 -93q0 -202 -188.5 -385t-389.5 -183q-139 0 -337.5 117.5t-321.5 117.5q-155 0 -236 -82q-26 -26 -97 -153q-45 -82 -112 -82q-80 0 -80 91z" />
    <glyph glyph-name="itilde" unicode="&#x129;" horiz-adv-x="1168" 
d="M387 407l56 1073q-17 30 -49 30q-43 0 -110.5 -108.5t-106.5 -108.5q-45 0 -44 50q141 263 427 756q265 -482 410 -764q1 -51 -45 -51q-38 0 -105.5 111.5t-108.5 111.5q-49 0 -47 -43l52 -1051q120 -46 198 -152q82 -110 82 -235q-9 -22 -31 -22h-195l-8 6
q-2 81 -62 139.5t-141 58.5q-82 0 -142 -58.5t-62 -140.5l-7 -5h-194q-23 0 -32 25q0 120 77 227q74 102 188 151zM-227 2362q0 201 181 370q177 167 376 167q142 0 349 -110.5t320 -110.5q130 0 217 87q38 37 113 162q52 87 97 87q110 0 110 -93q0 -202 -189 -385
t-390 -183q-139 0 -337 117.5t-321 117.5q-155 0 -237 -82q-25 -26 -96 -153q-46 -82 -113 -82q-80 0 -80 91z" />
    <glyph glyph-name="dotlessi" unicode="&#x131;" 
 />
    <glyph glyph-name="oe" unicode="&#x153;" 
 />
    <glyph glyph-name="Utilde" unicode="&#x168;" horiz-adv-x="2543" 
d="M2095 2512q106 0 134.5 99.5t84.5 99.5q84 0 84 -101q0 -206 -198 -270v-1351q0 -459 -313 -729q-297 -257 -763 -257q-455 0 -724 245q-279 254 -279 705v1419q-111 78 -111 226q0 95 87 95q51 0 80.5 -93.5t124.5 -93.5q106 0 135 99.5t83 99.5q86 0 86 -103
q0 -166 -144 -244v-1405q0 -341 175 -547q186 -221 521 -221q375 0 600 235q221 231 221 609v1316q-177 63 -177 260q0 94 87 94q52 0 81.5 -93.5t124.5 -93.5zM629 2737q0 170 153 315q151 141 320 141q121 0 296.5 -94t272.5 -94q146 0 238.5 143t123.5 143q94 0 94 -79
q0 -172 -160.5 -327.5t-331.5 -155.5q-118 0 -286.5 100t-273.5 100q-131 0 -201 -70q-22 -22 -82 -130q-38 -69 -95 -69q-68 0 -68 77z" />
    <glyph glyph-name="utilde" unicode="&#x169;" horiz-adv-x="1965" 
d="M891 293q350 0 423 441q20 409 39 819q35 441 293 441q101 0 101 -94q0 -47 -101.5 -88t-101.5 -130q0 -168 37 -508t37 -512q0 -306 -214 -486q-201 -170 -513 -170q-308 0 -512 171q-216 183 -216 485q0 172 37 512t37 508q0 89 -101.5 130t-101.5 88q0 94 101 94
q258 0 293 -441q20 -409 40 -819q73 -441 423 -441zM41 2347q0 200 181 370q177 166 375 166q143 0 349.5 -110.5t320.5 -110.5q129 0 217 87q37 38 112 162q53 87 98 87q109 0 109 -93q0 -201 -188.5 -384t-389.5 -183q-139 0 -337 117t-322 117q-154 0 -236 -82
q-26 -26 -96 -152q-46 -82 -113 -82q-80 0 -80 91z" />
    <glyph glyph-name="Ycircumflex" unicode="&#x176;" horiz-adv-x="2393" 
d="M1141 0q-379 770 -379 795q0 53 41 53t98 -116t101 -116q48 0 48 130q0 133 -54 408q-26 13 -51 26q-165 189 -300 402q-183 286 -183 435q0 7 67 29q79 26 123 66q66 60 66 159q0 122 -88 200q-81 71 -185 71q-199 0 -199 -208q0 -134 -4 -148q-20 -68 -121 -68
q-123 0 -123 216t141 343q128 115 316 115q206 0 351 -135q162 -150 162 -404q0 -223 -152 -302l305 -485q35 -56 40 -56q9 0 38 56l395 758q-54 67 -54 104q0 100 105 100q26 0 75.5 -50.5t105.5 -50.5q68 0 121 51t53 118q0 26 -19 64.5t-19 55.5q0 90 106 90
q134 0 134 -214q0 -147 -83 -257q-98 -128 -267 -128q-29 0 -60 4l-404 -697q-46 -79 -98 -289q-57 -228 -57 -370t62 -142q45 0 101.5 113t99.5 113q41 0 41 -53q0 -25 -396 -786zM762 2750q0 54 219 304t289 276q43 16 87 0q69 -26 289 -276t220 -304t-57 -54
q-69 0 -495 256q-425 -256 -495 -256q-57 0 -57 54z" />
    <glyph glyph-name="ycircumflex" unicode="&#x177;" horiz-adv-x="2191" 
d="M713 -1106q-163 0 -279 128q-67 73 -153 248q-72 146 -114 165q-37 -32 -55 -121t-51 -121l-41 63l60 698l286 -242q166 -147 257 -270l-31 -35q-61 46 -196 120l-34 -39q31 -135 122 -234q103 -111 231 -111q371 0 371 888q0 112 -6.5 250.5t-6.5 146.5l-536 924l-4 -1
l-60 148q8 8 134 73q73 39 73 125q0 83 -62.5 148t-145.5 65l-111 -49q-40 -98 -40 -171q0 -97 -107 -97q-93 0 -93 154q0 146 108.5 250.5t254.5 104.5q156 0 275 -120t119 -276q0 -149 -107 -252l460 -730l488 999q-172 75 -172 269q0 100 94 100q32 0 85 -99.5t139 -99.5
q95 0 150 105.5t87 105.5q92 0 92 -107q0 -241 -246 -294q-203 -380 -406 -761q-219 -447 -219 -805v-364q0 -336 -136 -581q-166 -298 -474 -298zM519 2369q0 64 257.5 358t338.5 324q52 19 103 0q82 -30 340.5 -324t258.5 -358q0 -63 -66 -63q-82 0 -583 301
q-501 -301 -583 -301q-66 0 -66 63z" />
    <glyph glyph-name="Ydieresis" unicode="&#x178;" horiz-adv-x="2393" 
d="M1141 0q-379 770 -379 795q0 53 41 53t98 -116t101 -116q48 0 48 130q0 133 -54 408q-26 13 -51 26q-165 189 -300 402q-183 286 -183 435q0 7 67 29q79 26 123 66q66 60 66 159q0 122 -88 200q-81 71 -185 71q-199 0 -199 -208q0 -134 -4 -148q-20 -68 -121 -68
q-123 0 -123 216t141 343q128 115 316 115q206 0 351 -135q162 -150 162 -404q0 -223 -152 -302l305 -485q35 -56 40 -56q9 0 38 56l395 758q-54 67 -54 104q0 100 105 100q26 0 75.5 -50.5t105.5 -50.5q68 0 121 51t53 118q0 26 -19 64.5t-19 55.5q0 90 106 90
q134 0 134 -214q0 -147 -83 -257q-98 -128 -267 -128q-29 0 -60 4l-404 -697q-46 -79 -98 -289q-57 -228 -57 -370t62 -142q45 0 101.5 113t99.5 113q41 0 41 -53q0 -25 -396 -786zM853 2753q0 170 153 314q151 141 320 141q121 0 296.5 -94t272.5 -94q146 0 238.5 143
t123.5 143q94 0 94 -79q0 -171 -160.5 -326.5t-331.5 -155.5q-118 0 -286.5 99.5t-273.5 99.5q-131 0 -201 -70q-22 -22 -81 -129q-39 -70 -96 -70q-68 0 -68 78z" />
    <glyph glyph-name="florin" unicode="&#x192;" 
 />
    <glyph glyph-name="circumflex" unicode="&#x2c6;" 
 />
    <glyph glyph-name="breve" unicode="&#x2d8;" 
 />
    <glyph glyph-name="ring" unicode="&#x2da;" 
 />
    <glyph glyph-name="tilde" unicode="&#x2dc;" 
 />
    <glyph glyph-name="emdash" unicode="&#x2014;" 
 />
    <glyph glyph-name="quoteleft" unicode="&#x2018;" 
 />
    <glyph glyph-name="quoteright" unicode="&#x2019;" 
 />
    <glyph glyph-name="quotedblleft" unicode="&#x201c;" 
 />
    <glyph glyph-name="quotedblright" unicode="&#x201d;" 
 />
    <glyph glyph-name="quotedblbase" unicode="&#x201e;" 
 />
    <glyph glyph-name="dagger" unicode="&#x2020;" 
 />
    <glyph glyph-name="daggerdbl" unicode="&#x2021;" 
 />
    <glyph glyph-name="bullet" unicode="&#x2022;" 
 />
    <glyph glyph-name="guilsinglleft" unicode="&#x2039;" 
 />
    <glyph glyph-name="guilsinglright" unicode="&#x203a;" 
 />
    <glyph glyph-name="trademark" unicode="&#x2122;" 
 />
    <glyph glyph-name="fi" unicode="&#xf001;" 
 />
    <glyph glyph-name="fl" unicode="&#xf002;" 
 />
    <glyph glyph-name="glyph215" 
 />
    <glyph glyph-name="glyph216" 
 />
    <glyph glyph-name="glyph206" 
 />
    </font>
</defs>
</svg>
